<svg width="320" height="150" viewBox="0 0 320 150" fill="none" xmlns="http://www.w3.org/2000/svg">
<path d="M102.567 54.1117V58.7097C102.567 60.2918 102.518 62.0716 102.419 64.0493C102.419 66.0269 102.271 67.8562 101.974 69.5372C101.677 71.3171 101.331 73.0475 100.936 74.7285C100.54 76.3106 100.046 77.8927 99.4524 79.4748C99.0569 80.5625 98.7108 81.5513 98.4142 82.4412C98.1175 83.2323 97.722 83.875 97.2276 84.3694C97.2276 84.4683 97.1782 84.5177 97.0793 84.5177C97.0793 84.5177 97.0793 84.5672 97.0793 84.6661C96.3871 85.9515 95.7444 86.9898 95.1511 87.7808C94.7556 88.473 94.2612 89.1652 93.6679 89.8573C93.0746 90.4506 92.4813 91.0439 91.888 91.6372C91.3936 92.1316 90.8497 92.626 90.2565 93.1204C89.762 93.6148 89.2676 94.1092 88.7732 94.6037C88.7732 94.6037 88.7238 94.6037 88.6249 94.6037C88.6249 94.6037 88.6249 94.6531 88.6249 94.752C88.1305 95.2464 87.6361 95.988 87.1417 96.9768C87.0428 97.0757 86.9934 97.1746 86.9934 97.2735C86.9934 97.3723 86.9439 97.4712 86.845 97.5701L86.4001 98.3117C86.3012 98.4106 86.2023 98.5589 86.1034 98.7567C86.1034 98.8556 86.054 98.905 85.9551 98.905C85.5596 99.5972 85.0652 100.24 84.4719 100.833C83.9775 101.229 83.3842 101.723 82.692 102.316C82.0987 102.811 81.456 103.157 80.7638 103.355H80.0222C79.9233 103.75 79.775 104.195 79.5772 104.69C79.4784 105.085 79.33 105.481 79.1323 105.876C79.0334 105.975 78.9345 106.123 78.8356 106.321C78.8356 106.519 78.7368 106.717 78.539 106.914C78.4401 107.013 78.3412 107.112 78.2423 107.211C78.1435 107.31 78.094 107.458 78.094 107.656C77.9951 108.744 77.8963 110.375 77.7974 112.551C77.7974 114.726 77.7479 117 77.6491 119.373C77.6491 121.846 77.6491 124.169 77.6491 126.345C77.6491 128.52 77.5996 130.152 77.5007 131.239C77.5007 131.338 77.303 131.19 76.9074 130.794C76.8086 130.498 76.7097 130.201 76.6108 129.904C76.6108 129.608 76.5119 129.311 76.3142 129.014L74.8309 122.34C74.3365 120.857 74.0893 119.027 74.0893 116.852C74.0893 114.677 74.0893 112.501 74.0893 110.326C74.1882 108.249 74.0399 106.469 73.6444 104.986C73.6444 104.986 73.5949 104.986 73.496 104.986C73.496 105.085 73.496 105.184 73.496 105.283C73.496 105.382 73.4466 105.382 73.3477 105.283C73.2488 105.184 73.15 105.135 73.0511 105.135C72.8533 105.036 72.6555 104.887 72.4578 104.69C72.3589 104.591 72.2106 104.492 72.0128 104.393C71.9139 104.294 71.7656 104.195 71.5678 104.096C71.1723 104.492 70.8757 104.887 70.6779 105.283C70.4802 105.481 70.3813 105.629 70.3813 105.728L69.4913 106.766C68.4036 108.15 67.5631 109.683 66.9699 111.364L66.0799 114.034C65.6844 115.22 65.2394 116.456 64.745 117.742C64.2506 119.126 63.509 120.362 62.5202 121.45C61.9269 122.043 61.6797 122.241 61.7786 122.043C61.9763 121.944 62.0752 121.846 62.0752 121.747L61.4819 122.34C61.0864 122.538 60.8886 122.686 60.8886 122.785C60.8886 122.983 60.6414 123.131 60.147 123.23C60.0482 123.23 59.8504 123.18 59.5537 123.082C59.356 122.983 59.1582 122.983 58.9605 123.082C58.8616 123.082 58.7627 123.082 58.6638 123.082C58.5649 123.18 58.4166 123.23 58.2188 123.23L57.1806 123.971C56.9828 124.07 56.6862 124.268 56.2907 124.565C55.994 124.861 55.6974 124.861 55.4007 124.565C55.3018 124.466 55.203 124.318 55.1041 124.12C55.1041 123.922 55.0052 123.774 54.8074 123.675C54.7085 123.576 54.6097 123.576 54.5108 123.675C54.4119 123.873 54.313 123.922 54.2141 123.823C54.1153 123.724 54.0164 123.625 53.9175 123.526C53.8186 123.428 53.7197 123.329 53.6209 123.23C53.2253 123.032 52.8298 122.735 52.4343 122.34C52.0387 121.944 51.6432 121.598 51.2477 121.302C50.8522 120.906 50.5061 120.609 50.2094 120.412C50.0117 120.906 49.9128 121.401 49.9128 121.895C49.9128 122.488 49.8139 123.032 49.6162 123.526C49.5173 123.922 49.3689 124.268 49.1712 124.565C49.0723 124.861 49.0229 125.158 49.0229 125.455C48.924 126.542 48.8745 128.124 48.8745 130.201C48.8745 132.376 48.8745 134.651 48.8745 137.024C48.8745 139.397 48.8251 141.622 48.7262 143.698C48.6273 145.874 48.479 147.505 48.2813 148.593C48.1824 149.483 48.0835 149.631 47.9846 149.038C47.9846 148.445 47.9352 147.456 47.8363 146.071C47.8363 144.687 47.7868 143.253 47.688 141.77C47.688 140.386 47.688 139.249 47.688 138.359C47.5891 136.876 47.4902 134.997 47.3913 132.722C47.3913 130.448 47.3419 128.174 47.243 125.9C47.243 123.724 47.1936 121.895 47.0947 120.412C46.6991 120.708 46.3531 121.054 46.0564 121.45C45.4631 122.142 44.9193 122.834 44.4249 123.526C43.9305 124.219 43.2877 124.812 42.4967 125.306C42.3978 126.097 42.2989 126.888 42.2 127.68C42.1012 128.471 42.0023 129.262 41.9034 130.053C41.8045 131.536 41.6067 132.97 41.3101 134.354C41.1123 135.738 40.9146 137.123 40.7168 138.507C40.6179 139.1 40.5191 139.644 40.4202 140.139C40.4202 140.732 40.3213 141.276 40.1235 141.77C40.0246 142.166 39.9258 142.759 39.8269 143.55C39.728 144.44 39.6291 144.687 39.5302 144.292C39.3325 142.017 39.2336 139.545 39.2336 136.876C39.2336 134.305 39.1347 131.931 38.9369 129.756C38.9369 129.657 38.8381 129.608 38.6403 129.608C38.4425 129.608 38.3437 129.657 38.3437 129.756C38.1459 131.931 38.047 134.403 38.047 137.172C38.047 139.941 37.9481 142.462 37.7504 144.737C37.7504 145.132 37.6515 144.984 37.4537 144.292C37.3548 143.599 37.256 143.105 37.1571 142.808C36.8604 141.721 36.6132 140.485 36.4155 139.1C36.2177 137.716 36.0199 136.579 35.8222 135.689C35.6244 133.909 35.4267 132.129 35.2289 130.349C35.13 128.668 34.9322 126.987 34.6356 125.306L33.7457 124.416C33.449 123.922 33.1524 123.428 32.8557 122.933C32.658 122.538 32.4602 122.142 32.2624 121.747C31.4714 119.967 30.7298 118.187 30.0376 116.407C29.4443 114.627 28.7522 112.897 27.9611 111.216L25.7363 106.618C25.6374 106.42 25.5879 106.272 25.5879 106.173C25.5879 106.074 25.5385 105.975 25.4396 105.876C25.2419 106.272 25.143 106.717 25.143 107.211C25.2419 107.804 25.143 108.348 24.8463 108.843C24.7474 108.941 24.6486 108.793 24.5497 108.398C24.4508 108.101 24.3519 107.903 24.253 107.804C24.1542 107.211 24.0058 106.766 23.8081 106.469C23.8081 106.667 23.7092 106.865 23.5114 107.063C23.4125 107.26 23.2148 107.508 22.9181 107.804C22.6215 108.101 22.3249 108.398 22.0282 108.694C21.8304 108.991 21.5832 109.238 21.2866 109.436C20.7922 110.128 20.3967 110.919 20.1 111.809C19.9023 112.798 19.7045 113.688 19.5067 114.479C19.4078 114.874 19.309 115.27 19.2101 115.665C19.2101 116.061 19.1112 116.456 18.9134 116.852C18.8146 117.248 18.7157 117.841 18.6168 118.632C18.5179 119.423 18.419 119.621 18.3202 119.225C17.2325 118.137 16.738 117.692 16.8369 117.89C16.9358 118.187 17.2325 118.681 17.7269 119.373C18.2213 120.165 18.5179 120.807 18.6168 121.302C18.7157 121.895 18.2213 121.944 17.1336 121.45C16.1448 121.153 15.6504 120.461 15.6504 119.373C15.7492 118.286 15.947 117.05 16.2436 115.665C16.6392 114.281 16.738 113.094 16.5403 112.106C16.5403 111.908 16.4414 111.71 16.2436 111.512C16.1448 111.315 16.0953 111.315 16.0953 111.512C15.9964 112.007 15.947 112.748 15.947 113.737C15.947 114.726 15.947 115.517 15.947 116.11C15.947 116.803 15.7987 116.901 15.502 116.407C15.0076 115.319 14.8593 114.182 15.0571 112.996C15.2548 111.809 15.2548 110.672 15.0571 109.584C14.9582 108.991 14.711 108.497 14.3155 108.101C14.1177 108.002 13.9199 107.854 13.7222 107.656C13.5244 107.458 13.3266 107.31 13.1289 107.211C13.03 107.211 12.9311 107.26 12.8322 107.359C12.8322 107.557 12.7828 107.705 12.6839 107.804C12.3873 107.804 12.2389 107.854 12.2389 107.953C12.1401 108.744 12.1401 109.782 12.2389 111.067C12.4367 112.452 12.5356 113.589 12.5356 114.479C12.6345 115.369 12.3378 115.616 11.6456 115.22C10.6568 114.429 10.3602 113.243 10.7557 111.661C11.2501 110.079 11.3984 108.645 11.2007 107.359C11.2007 107.162 11.1512 106.914 11.0524 106.618C10.9535 106.321 10.8052 106.272 10.6074 106.469C10.4096 106.766 10.3602 107.211 10.4591 107.804C10.558 108.398 10.4591 108.645 10.1624 108.546C9.7669 108.348 9.61858 108.002 9.71746 107.508C9.91522 107.013 9.96466 106.568 9.86578 106.173L8.82753 104.69C8.432 104.492 8.08591 104.294 7.78927 104.096C6.70157 103.305 6.15773 102.218 6.15773 100.833V72.9486C4.27898 69.8833 2.89464 67.0157 2.0047 64.3459C1.21365 61.5772 1.06533 59.3524 1.55973 57.6714C2.15302 55.9904 3.68569 55.1499 6.15773 55.1499V9.17002C6.15773 8.57674 6.10828 7.93401 6.0094 7.24183C6.0094 6.45078 6.05884 5.70917 6.15773 5.017C6.15773 4.02819 6.40493 3.23714 6.89934 2.64385C7.29486 2.05055 7.83871 1.60559 8.53088 1.30895C9.12417 1.11118 9.61858 1.0123 10.0141 1.0123C10.5085 0.913417 11.0029 0.913417 11.4973 1.0123C12.0906 1.0123 12.6345 1.0123 13.1289 1.0123H50.2094C51.7915 1.0123 53.3736 1.0123 54.9558 1.0123C56.5379 1.0123 58.12 1.11118 59.7021 1.30895C70.579 2.19888 79.7256 5.46197 87.1417 11.0982C87.735 11.4937 88.1799 11.8398 88.4766 12.1365C88.7732 12.3342 89.0204 12.532 89.2182 12.7298C90.9981 14.213 92.7285 16.0423 94.4095 18.2177C95.5961 19.5031 96.5849 20.9864 97.3759 22.6674C99.2547 26.1282 100.639 30.034 101.529 34.3848C101.529 34.4837 101.529 34.5331 101.529 34.5331C101.628 34.5331 101.677 34.5826 101.677 34.6815C101.776 35.077 101.875 35.5219 101.974 36.0164C102.073 36.4119 102.122 36.8569 102.122 37.3513C102.419 38.6367 102.567 40.0211 102.567 41.5043C102.765 46.1517 102.765 50.3542 102.567 54.1117ZM43.8316 30.3801L42.9416 29.4902C41.854 28.4025 41.409 27.9081 41.6067 28.007C41.8045 28.1058 42.1506 28.4519 42.645 29.0452C43.2383 29.6385 43.4361 30.1329 43.2383 30.5284V74.1352C43.2383 81.3535 42.3978 86.6437 40.7168 90.0057C39.1347 93.3676 36.9593 95.1969 34.1906 95.4936C31.5208 95.7902 28.6038 95.0486 25.4396 93.2688C22.2754 91.39 19.1606 88.8685 16.0953 85.7043C13.03 82.5401 10.2613 79.1781 7.78927 75.6184C5.41611 72.0587 3.63625 68.6967 2.44967 65.5325C1.26309 62.2694 0.966445 59.6985 1.55973 57.8197C2.25191 55.8421 4.08121 54.9522 7.04766 55.1499C10.0141 55.2488 14.4143 56.8804 20.2483 60.0446C26.1812 63.1099 33.8445 68.1034 43.2383 75.0251L44.4249 75.915H50.6544C51.9399 75.915 53.1759 75.8656 54.3625 75.7667C55.6479 75.569 56.9334 75.2723 58.2188 74.8768C59.0099 74.5801 59.7515 74.1352 60.4437 73.5419C60.5426 73.5419 60.592 73.5419 60.592 73.5419C60.592 73.443 60.6414 73.3936 60.7403 73.3936C60.9381 73.1958 61.1358 72.9486 61.3336 72.652C61.5314 72.3553 61.7291 72.0587 61.9269 71.762C62.5202 70.7732 62.9652 69.735 63.2618 68.6473C63.6573 67.4607 63.954 66.373 64.1517 65.3842C64.1517 65.2853 64.1517 65.1864 64.1517 65.0875C64.2506 64.8898 64.3001 64.7414 64.3001 64.6426C64.4978 64.0493 64.5967 63.456 64.5967 62.8627C64.6956 62.1705 64.7945 61.5278 64.8933 60.9345C64.8933 59.8468 64.8933 58.6602 64.8933 57.3748C64.9922 55.9904 65.0417 54.6061 65.0417 53.2217V50.9969C65.0417 50.0081 64.9922 49.0687 64.8933 48.1788C64.8933 47.19 64.8933 46.2012 64.8933 45.2123C64.8933 44.9157 64.8439 44.4213 64.745 43.7291C64.745 42.9381 64.745 42.1965 64.745 41.5043C64.6461 40.4166 64.4484 39.4278 64.1517 38.5378C63.954 37.549 63.6079 36.6096 63.1135 35.7197C63.1135 35.7197 63.0146 35.5219 62.8168 35.1264C62.718 34.9287 62.5202 34.6815 62.2235 34.3848C62.2235 34.2859 62.1247 34.1376 61.9269 33.9398L61.037 33.0499C60.3448 32.4566 59.6526 32.16 58.9605 32.16C58.2683 32.16 57.5267 32.2589 56.7356 32.4566C55.9446 32.5555 55.1041 32.7533 54.2141 33.0499C53.3242 33.2477 52.4343 33.396 51.5443 33.4949C51.1488 33.5938 50.7038 33.6926 50.2094 33.7915C49.8139 33.7915 49.4184 33.7421 49.0229 33.6432C48.3307 33.4454 47.6385 33.1488 46.9463 32.7533C46.2542 32.2589 45.6114 31.8139 45.0182 31.4184C44.5238 30.924 44.1282 30.5779 43.8316 30.3801ZM226.599 101.575C226.501 101.674 226.451 101.822 226.451 102.02C226.451 102.119 226.402 102.218 226.303 102.316C226.105 102.712 226.006 102.91 226.006 102.91C225.907 103.305 225.759 103.552 225.561 103.651C225.363 103.75 225.166 103.899 224.968 104.096L224.375 104.541C224.078 105.827 223.831 107.063 223.633 108.249C223.534 109.535 223.386 110.82 223.188 112.106C223.089 112.6 222.99 113.342 222.891 114.331C222.891 115.319 222.792 115.567 222.595 115.072C222.298 113.787 222.15 112.501 222.15 111.216C222.249 109.93 222.199 108.645 222.001 107.359C222.001 107.26 221.903 107.26 221.705 107.359C221.606 107.557 221.507 107.656 221.408 107.656C221.21 107.755 220.963 107.903 220.666 108.101C220.37 108.299 220.024 108.348 219.628 108.249C219.529 108.249 219.381 108.15 219.183 107.953C218.392 107.953 217.552 107.607 216.662 106.914C216.563 107.211 216.513 107.557 216.513 107.953C216.612 108.447 216.513 108.793 216.217 108.991C215.92 109.189 215.772 109.04 215.772 108.546C215.772 108.052 215.722 107.656 215.624 107.359C215.624 107.359 215.574 106.914 215.475 106.024C215.475 105.233 215.03 105.036 214.14 105.431C214.041 105.53 213.893 105.678 213.695 105.876C213.596 106.074 213.399 106.321 213.102 106.618C212.805 107.013 212.459 107.359 212.064 107.656C211.965 107.755 211.817 107.903 211.619 108.101C211.52 108.398 211.372 108.645 211.174 108.843C210.877 109.04 210.581 108.991 210.284 108.694C210.086 108.497 209.888 108.348 209.691 108.249C209.592 108.249 209.345 108.299 208.949 108.398C208.652 108.595 208.504 108.744 208.504 108.843C208.504 108.843 208.455 108.843 208.356 108.843C208.356 108.843 208.356 108.892 208.356 108.991C208.356 108.991 208.257 109.09 208.059 109.288C207.466 109.98 207.021 110.771 206.724 111.661C206.428 112.65 206.081 113.539 205.686 114.331C205.488 114.726 205.241 115.171 204.944 115.665C204.747 116.259 204.4 116.704 203.906 117C203.807 118.286 203.708 119.571 203.609 120.857C203.609 122.142 203.511 123.428 203.313 124.713C203.214 125.01 203.115 125.455 203.016 126.048C203.016 126.641 202.917 126.79 202.72 126.493C202.423 125.9 202.275 125.257 202.275 124.565C202.275 123.971 202.225 123.329 202.126 122.637C202.027 121.549 201.978 120.511 201.978 119.522C201.978 118.533 201.879 117.544 201.681 116.555C201.088 116.061 200.643 115.616 200.346 115.22C199.951 114.627 199.506 113.984 199.011 113.292C198.616 112.6 198.171 111.908 197.677 111.216C197.281 110.524 196.885 109.881 196.49 109.288C196.193 108.694 195.847 108.101 195.452 107.508C195.353 107.31 195.205 107.112 195.007 106.914L194.562 106.173H194.413C194.315 106.173 194.166 105.926 193.968 105.431C193.87 105.036 193.721 104.69 193.524 104.393C194.018 104.887 194.166 105.036 193.968 104.838C193.87 104.64 193.622 104.343 193.227 103.948C192.93 103.552 192.732 103.355 192.634 103.355L192.485 103.206L192.04 102.465C192.04 102.366 191.991 102.316 191.892 102.316C191.892 102.218 191.892 102.119 191.892 102.02C191.595 101.229 191.496 100.339 191.595 99.35C191.694 98.2623 191.744 97.3229 191.744 96.5318V61.3795C191.744 63.0604 191.793 63.8515 191.892 63.7526C191.991 63.6537 192.09 63.2088 192.189 62.4177C192.287 61.6267 192.287 60.9839 192.189 60.4895C192.09 59.8962 191.843 59.9951 191.447 60.7862L190.854 61.6761C190.656 61.8739 190.557 62.0222 190.557 62.1211C190.656 62.1211 190.607 62.22 190.409 62.4177C190.409 62.4177 190.359 62.4672 190.26 62.566C190.26 62.566 190.26 62.6155 190.26 62.7144C189.766 63.4065 189.272 64.1481 188.777 64.9392C188.382 65.7303 187.937 66.5213 187.442 67.3124C186.651 68.5978 185.86 69.9327 185.069 71.3171C184.278 72.7014 183.438 74.0363 182.548 75.3218C182.449 75.6184 182.3 75.915 182.103 76.2117C181.905 76.5083 181.707 76.7555 181.509 76.9533C181.213 77.3488 180.867 77.7444 180.471 78.1399C180.175 78.5354 179.779 78.8321 179.285 79.0298C179.186 79.1287 179.037 79.277 178.84 79.4748C178.741 79.6725 178.543 80.0186 178.246 80.513C178.147 80.6119 177.999 80.6614 177.801 80.6614C177.702 81.7491 177.604 83.43 177.505 85.7043C177.505 87.8797 177.455 90.2529 177.356 92.8238C177.356 95.3947 177.307 97.8173 177.208 100.092C177.208 102.267 177.159 103.899 177.06 104.986C177.06 105.085 176.961 105.135 176.763 105.135C176.565 105.135 176.466 105.085 176.466 104.986C176.368 103.602 176.269 101.426 176.17 98.46C176.17 95.4936 176.17 92.4777 176.17 89.4124C176.17 86.347 176.071 83.9245 175.873 82.1446C175.873 82.1446 175.725 81.9963 175.428 81.6996L175.28 81.8479C175.28 81.8479 175.28 81.8974 175.28 81.9963C175.28 81.9963 175.23 81.9963 175.132 81.9963C175.132 82.194 175.033 82.3918 174.835 82.5895C174.637 82.9851 174.39 83.3806 174.093 83.7761C173.797 84.0728 173.451 84.32 173.055 84.5177C172.857 85.0121 172.808 85.6549 172.907 86.4459C173.006 87.237 172.808 87.5831 172.313 87.4842C171.819 87.2864 171.671 86.8415 171.868 86.1493C172.066 85.3582 172.066 84.6661 171.868 84.0728C171.671 83.875 171.473 83.6278 171.275 83.3312C171.077 83.0345 170.88 82.8368 170.682 82.7379C170.385 82.4412 170.237 82.2929 170.237 82.2929C170.138 82.6884 169.99 83.084 169.792 83.4795C169.693 83.875 169.594 84.1717 169.495 84.3694C169.495 83.875 169.347 83.2817 169.05 82.5895C168.853 82.7873 168.754 82.9356 168.754 83.0345C168.754 83.0345 168.655 83.1334 168.457 83.3312C168.259 83.6278 168.062 83.9739 167.864 84.3694C167.666 84.7649 167.468 85.111 167.27 85.4077C167.172 85.5066 166.974 85.7043 166.677 86.001C166.479 86.1987 166.282 86.2482 166.084 86.1493C165.886 86.0504 165.738 85.9515 165.639 85.8526C165.54 85.6549 165.392 85.5066 165.194 85.4077C164.7 84.9133 164.353 84.1717 164.156 83.1828C163.958 82.4907 163.76 81.8479 163.562 81.2546C163.464 80.5625 163.315 79.8703 163.117 79.1781C162.722 78.9804 162.376 78.7332 162.079 78.4365C161.881 78.041 161.634 77.6949 161.338 77.3983L160.596 76.2117C159.805 74.9262 159.014 73.6408 158.223 72.3553C157.432 70.971 156.641 69.6361 155.85 68.3506L154.515 66.1258C154.218 65.7303 153.921 65.3347 153.625 64.9392C153.427 64.5437 153.18 64.1481 152.883 63.7526L152.438 62.8627C152.339 62.6649 152.24 62.4672 152.142 62.2694C152.043 62.0716 151.894 61.8739 151.697 61.6761C151.697 61.5772 151.647 61.5278 151.548 61.5278C151.548 61.5278 151.548 61.4783 151.548 61.3795C151.548 61.3795 151.449 61.2806 151.252 61.0828C151.252 60.5884 151.153 60.2423 150.955 60.0446C150.856 59.7479 150.807 59.9951 150.807 60.7862V98.46C150.807 98.9544 150.807 99.4983 150.807 100.092C150.906 100.586 150.906 101.08 150.807 101.575C150.807 101.377 150.757 101.476 150.658 101.871C150.559 102.168 150.559 102.267 150.658 102.168C150.559 102.564 150.312 102.959 149.917 103.355L149.027 104.245C148.928 104.64 148.829 105.036 148.73 105.431C148.73 105.926 148.631 106.42 148.434 106.914C148.236 108.2 147.989 109.436 147.692 110.622C147.494 111.908 147.198 113.193 146.802 114.479C146.703 114.775 146.555 115.27 146.357 115.962C146.159 116.654 145.962 117.149 145.764 117.445C145.17 118.039 144.725 117.841 144.429 116.852C144.132 115.962 143.934 115.468 143.836 115.369C143.638 114.578 143.44 113.737 143.242 112.847C143.045 112.056 142.847 111.216 142.649 110.326C142.55 109.831 142.501 109.337 142.501 108.843C142.501 108.348 142.402 107.903 142.204 107.508C142.006 107.705 141.759 107.903 141.462 108.101C141.166 108.398 140.869 108.645 140.572 108.843C140.375 110.721 140.226 112.65 140.127 114.627C140.127 116.704 140.029 118.731 139.831 120.708C139.831 120.807 139.732 120.758 139.534 120.56C139.336 120.362 139.238 120.214 139.238 120.115C138.348 118.632 138.051 117.248 138.348 115.962C138.644 114.775 138.941 113.539 139.238 112.254C139.633 110.969 139.386 109.634 138.496 108.249C138.397 108.052 138.298 107.854 138.199 107.656C138.1 107.458 137.952 107.26 137.754 107.063C137.557 107.063 137.458 107.063 137.458 107.063C137.26 108.645 137.161 110.177 137.161 111.661C137.161 113.243 137.062 114.775 136.864 116.259C136.864 116.259 136.667 116.259 136.271 116.259C135.876 116.259 135.678 116.209 135.678 116.11C135.579 114.627 135.48 113.094 135.381 111.512C135.381 110.029 135.282 108.497 135.085 106.914H134.343L134.195 106.766C133.997 106.766 133.898 106.766 133.898 106.766C133.799 108.052 133.75 109.288 133.75 110.474C133.75 111.76 133.651 113.045 133.453 114.331C133.453 114.429 133.255 114.281 132.86 113.886C132.464 113.688 132.266 113.539 132.266 113.441C132.069 112.353 131.97 111.315 131.97 110.326C131.97 109.337 131.92 108.348 131.821 107.359C131.723 107.458 131.624 107.607 131.525 107.804C131.426 108.002 131.426 108.002 131.525 107.804C131.426 108.101 131.228 108.398 130.932 108.694C130.833 108.793 130.684 108.892 130.487 108.991C130.289 109.189 130.091 109.386 129.893 109.584C129.597 110.177 129.399 110.771 129.3 111.364C129.201 112.056 129.003 112.748 128.707 113.441C128.608 113.539 128.509 113.688 128.41 113.886C128.41 114.083 128.311 114.281 128.113 114.479C127.916 114.677 127.718 114.677 127.52 114.479C127.125 114.083 126.877 113.391 126.778 112.402C126.68 111.414 126.531 110.771 126.334 110.474C125.839 109.98 125.394 109.337 124.999 108.546C124.702 107.854 124.306 107.013 123.812 106.024C123.713 106.222 123.664 106.371 123.664 106.469C123.664 106.667 123.614 106.865 123.515 107.063C123.417 107.162 123.169 107.112 122.774 106.914C122.477 106.816 122.329 106.766 122.329 106.766C121.933 106.568 121.637 106.371 121.439 106.173C121.538 106.371 121.587 106.717 121.587 107.211C121.587 107.705 121.389 108.497 120.994 109.584C120.895 109.98 120.796 110.326 120.697 110.622C120.598 110.919 120.5 111.265 120.401 111.661C120.302 112.748 120.252 114.429 120.252 116.704C120.252 119.077 120.252 121.549 120.252 124.12C120.252 126.79 120.252 129.262 120.252 131.536C120.252 133.909 120.153 135.639 119.956 136.727C119.857 137.716 119.758 137.864 119.659 137.172C119.659 136.48 119.659 135.293 119.659 133.612C119.659 131.931 119.659 130.201 119.659 128.421C119.659 126.641 119.659 125.257 119.659 124.268C119.56 121.302 119.511 118.83 119.511 116.852C119.511 114.973 119.461 113.094 119.362 111.216C119.263 109.436 119.016 107.26 118.621 104.69C118.225 104.492 117.879 104.294 117.583 104.096C116.495 103.305 115.951 102.218 115.951 100.833V5.017C115.951 3.92931 116.346 2.98993 117.138 2.19888C117.929 1.40782 119.016 1.0123 120.401 1.0123H140.424C141.512 1.0123 142.55 1.0123 143.539 1.0123C144.528 0.913417 145.467 1.11118 146.357 1.60559C147.445 2.09999 148.285 2.79217 148.879 3.6821C149.571 4.57203 150.164 5.51141 150.658 6.50022C150.856 6.69799 151.004 6.94519 151.103 7.24183C151.301 7.4396 151.449 7.6868 151.548 7.98344L152.29 9.17002C153.18 10.2577 154.02 11.5432 154.811 13.0264C155.701 14.4107 156.542 15.894 157.333 17.4761L162.524 26.0788C163.711 27.8586 164.848 29.6879 165.936 31.5667C167.023 33.4454 168.111 35.2747 169.199 37.0546C169.396 37.4501 169.644 37.8951 169.94 38.3895C170.237 38.785 170.484 39.23 170.682 39.7244L171.275 40.6143L171.868 39.5761C172.066 39.0817 172.313 38.6367 172.61 38.2412C172.907 37.8457 173.154 37.4501 173.352 37.0546C174.242 35.6703 175.132 34.2365 176.021 32.7533C176.911 31.27 177.801 29.7868 178.691 28.3036L179.73 26.5237C179.73 26.4248 179.73 26.3754 179.73 26.3754C179.828 26.3754 179.878 26.326 179.878 26.2271C179.878 26.2271 179.977 26.1282 180.175 25.9304L185.217 17.4761C185.316 17.4761 185.366 17.4761 185.366 17.4761C185.366 17.3772 185.366 17.3277 185.366 17.3277C186.157 15.8445 186.948 14.4107 187.739 13.0264C188.629 11.6421 189.42 10.406 190.112 9.31834L191.002 7.83512C191.496 7.04407 191.941 6.30246 192.337 5.61029C192.831 4.81924 193.375 4.07763 193.968 3.38546C193.968 3.28657 194.018 3.23713 194.117 3.23713C194.611 2.54496 195.303 2.00111 196.193 1.60559C197.083 1.11118 198.023 0.913417 199.011 1.0123C200.099 1.0123 201.137 1.0123 202.126 1.0123H222.595C223.188 1.0123 223.633 1.11118 223.93 1.30895C224.226 1.40783 224.572 1.55615 224.968 1.75391C225.858 2.3472 226.402 3.33602 226.599 4.72036C226.698 5.41253 226.698 6.15414 226.599 6.94519C226.599 7.73625 226.599 8.47786 226.599 9.17002V94.307C226.599 95.4936 226.649 96.7296 226.748 98.0151C226.847 99.2016 226.797 100.388 226.599 101.575ZM318.774 64.4942C318.774 65.0875 318.774 65.7303 318.774 66.4224C318.872 67.0157 318.872 67.609 318.774 68.2023C318.774 68.5978 318.675 69.0922 318.477 69.6855C318.279 70.081 318.131 70.3282 318.032 70.4271L317.142 71.3171C317.043 71.4159 316.895 71.762 316.697 72.3553C316.499 72.8497 316.252 73.1958 315.955 73.3936C315.758 73.4925 315.56 73.443 315.362 73.2452C315.263 72.9486 315.115 73.0969 314.917 73.6902C314.423 74.8768 314.077 76.1623 313.879 77.5466C313.78 78.8321 313.483 80.1175 312.989 81.403C312.989 81.5019 312.791 81.9468 312.396 82.7379C312.099 83.43 311.704 83.7761 311.209 83.7761C310.814 83.6772 310.468 83.2323 310.171 82.4412C309.874 81.6502 309.726 81.2052 309.726 81.1063C309.231 79.6231 308.984 78.6343 308.984 78.1399C308.984 77.6455 308.984 77.1511 308.984 76.6567C308.984 76.0634 308.787 75.0251 308.391 73.5419C308.391 73.5419 308.292 73.443 308.094 73.2452C307.995 73.3441 307.946 73.4925 307.946 73.6902C307.946 73.7891 307.897 73.888 307.798 73.9869C307.699 74.1846 307.452 74.4318 307.056 74.7285C306.661 75.0251 306.314 75.1734 306.018 75.1734C305.622 75.1734 305.227 74.9757 304.831 74.5801C304.634 74.7779 304.436 74.9262 304.238 75.0251C304.139 75.0251 304.04 74.9757 303.941 74.8768C303.842 74.679 303.793 74.6296 303.793 74.7285C303.694 75.3218 303.645 76.1623 303.645 77.2499C303.645 78.2388 303.645 79.0793 303.645 79.7714C303.645 80.4636 303.496 80.5625 303.2 80.0681C302.508 78.9804 302.26 77.7938 302.458 76.5083C302.755 75.2229 302.804 74.0363 302.606 72.9486C302.409 73.1464 302.211 73.443 302.013 73.8385C302.31 73.5419 302.31 73.5913 302.013 73.9869C301.716 74.2835 301.469 74.3329 301.272 74.1352C301.173 74.6296 301.123 75.124 301.123 75.6184C301.123 76.1128 301.024 76.6072 300.827 77.1016C300.827 77.2994 300.777 77.5466 300.678 77.8432C300.579 78.1399 300.431 78.2388 300.233 78.1399C299.937 77.9421 299.739 77.6949 299.64 77.3983C299.64 77.0027 299.591 76.6567 299.492 76.36C299.393 75.8656 299.294 75.3712 299.195 74.8768C299.096 74.3824 298.948 73.888 298.75 73.3936C298.75 73.5913 298.651 73.7891 298.453 73.9869C298.453 73.9869 298.206 73.9374 297.712 73.8385C297.316 73.7397 297.168 73.6902 297.267 73.6902C296.674 73.6902 296.13 73.7397 295.635 73.8385C295.24 73.8385 294.795 73.7891 294.3 73.6902C294.3 74.5801 294.152 74.9757 293.855 74.8768C293.658 74.7779 293.46 74.4813 293.262 73.9869C293.163 73.4925 292.965 72.998 292.669 72.5036L291.779 71.6137C290.691 70.526 290.246 70.0316 290.444 70.1305C290.642 70.2294 290.988 70.5754 291.482 71.1687C292.076 71.762 292.273 72.2564 292.076 72.652V90.599C292.076 91.1922 292.076 91.7855 292.076 92.3788C292.174 92.9721 292.174 93.5654 292.076 94.1587C292.273 95.4441 292.224 96.4824 291.927 97.2735C291.532 98.0645 291.334 98.4106 291.334 98.3117L291.037 98.6084C290.741 99.0039 290.345 99.3005 289.851 99.4983C289.752 99.7949 289.653 100.092 289.554 100.388C289.554 100.685 289.455 100.982 289.257 101.278C289.159 101.575 289.109 102.02 289.109 102.613C289.208 103.107 289.06 103.305 288.664 103.206C288.565 103.206 288.466 103.157 288.367 103.058L286.143 108.694C285.648 110.177 285.104 111.661 284.511 113.144C284.313 113.638 284.066 114.133 283.77 114.627C283.572 115.22 283.275 115.764 282.88 116.259C282.682 116.555 282.435 116.852 282.138 117.149C281.841 117.544 281.446 117.791 280.951 117.89C280.852 117.989 280.704 118.088 280.506 118.187C280.309 118.286 280.061 118.484 279.765 118.78C279.567 119.176 279.369 119.472 279.172 119.67C278.974 119.868 278.776 119.917 278.578 119.818C278.282 119.621 278.034 119.027 277.837 118.039C277.639 117.149 277.54 116.704 277.54 116.704C277.144 116.407 276.798 116.061 276.502 115.665C276.304 115.369 276.057 115.023 275.76 114.627L275.167 113.589V113.441C274.574 112.056 274.03 110.622 273.535 109.139C273.041 107.755 272.546 106.371 272.052 104.986C271.854 104.492 271.657 103.997 271.459 103.503C271.261 102.91 271.063 102.415 270.865 102.02L269.976 99.9433L268.641 99.7949C268.443 99.6961 268.245 99.5972 268.047 99.4983C267.85 99.3005 267.652 99.1522 267.454 99.0533C266.465 98.2623 265.971 97.224 265.971 95.9386V73.8385L265.378 72.0587C265.279 72.1575 265.031 72.652 264.636 73.5419C264.339 74.3329 264.191 74.7779 264.191 74.8768C264.092 75.0746 263.993 75.4206 263.894 75.915C263.894 76.4095 263.795 76.5578 263.598 76.36C263.4 76.1623 263.301 75.7667 263.301 75.1734C263.202 75.2723 263.153 75.4206 263.153 75.6184C263.153 75.8162 263.103 76.0139 263.004 76.2117C262.906 76.3106 262.807 76.5083 262.708 76.805C262.609 77.1016 262.461 77.2005 262.263 77.1016C261.966 77.0027 261.768 76.36 261.669 75.1734C261.571 76.36 261.521 77.5466 261.521 78.7332C261.521 79.9197 261.422 81.1063 261.225 82.2929C261.225 82.3918 261.027 82.8368 260.631 83.6278C260.335 84.32 260.137 84.7155 260.038 84.8144C259.939 85.2099 259.741 85.6054 259.445 86.001C259.346 86.0998 259.247 86.347 259.148 86.7426C259.049 87.0392 258.95 87.1381 258.851 87.0392C258.654 85.0616 258.555 83.084 258.555 81.1063C258.555 79.1287 258.456 77.1511 258.258 75.1734C258.258 75.2723 258.06 75.3218 257.665 75.3218C257.566 75.3218 257.516 75.3712 257.516 75.4701C257.516 75.4701 257.467 75.4701 257.368 75.4701H256.923C256.824 75.6678 256.676 75.8656 256.478 76.0634C256.478 76.0634 256.33 75.915 256.033 75.6184C255.44 75.6184 254.995 75.569 254.698 75.4701C254.402 75.4701 254.253 75.4701 254.253 75.4701C254.056 77.6455 253.957 79.8209 253.957 81.9963C253.957 84.1717 253.858 86.3965 253.66 88.6708C253.561 88.7696 253.363 88.5224 253.067 87.9292C252.968 87.8303 252.869 87.7314 252.77 87.6325C252.671 87.5336 252.572 87.4347 252.474 87.3359C252.177 87.0392 251.781 86.6437 251.287 86.1493C250.891 85.556 250.694 85.0616 250.694 84.6661C250.496 82.9851 250.397 81.3041 250.397 79.6231C250.397 77.8432 250.298 76.1128 250.1 74.4318C250.001 74.5307 249.804 74.679 249.507 74.8768C249.309 75.0746 249.112 75.2723 248.914 75.4701C247.925 77.5466 247.48 79.7714 247.579 82.1446C247.777 84.5177 247.777 86.8415 247.579 89.1157C247.579 89.5113 247.48 90.0057 247.282 90.599C247.183 91.1922 247.084 91.3406 246.986 91.0439C245.898 89.9562 245.354 89.1157 245.354 88.5224C245.453 87.8303 245.7 87.237 246.096 86.7426C246.59 86.2482 246.887 85.7043 246.986 85.111C247.084 84.4189 246.689 83.5289 245.799 82.4412C245.403 80.958 245.255 79.8209 245.354 79.0298C245.552 78.2388 245.403 76.8544 244.909 74.8768L244.761 74.7285C244.563 74.5307 244.415 74.3329 244.316 74.1352L243.426 73.2452C243.327 73.5419 243.278 73.8385 243.278 74.1352C243.278 74.4318 243.179 74.679 242.981 74.8768C242.981 74.8768 242.734 74.6296 242.239 74.1352C242.042 73.7397 241.844 73.443 241.646 73.2452L241.201 72.3553C241.201 72.3553 241.102 72.1576 240.904 71.762C240.904 71.6631 240.805 71.5148 240.608 71.3171C240.014 70.9215 239.569 70.3777 239.273 69.6855C239.273 69.5866 239.223 69.5372 239.124 69.5372C239.124 69.4383 239.124 69.3394 239.124 69.2405C239.026 69.0428 238.976 68.6473 238.976 68.054C238.877 67.4607 238.828 66.8179 238.828 66.1258C238.927 65.4336 238.976 64.8403 238.976 64.3459C238.976 62.6649 238.927 60.9839 238.828 59.303C238.828 57.622 238.877 55.9904 238.976 54.4083C238.778 52.9251 238.828 51.6396 239.124 50.5519C239.421 49.5631 239.965 48.9204 240.756 48.6238C241.448 48.1293 242.239 47.8821 243.129 47.8821C243.821 47.7833 244.514 47.7833 245.206 47.8821C245.898 47.8821 246.59 47.8821 247.282 47.8821H265.971V29.4902C265.971 28.5014 265.921 27.4631 265.823 26.3754C265.724 25.2877 265.823 24.2989 266.119 23.409C266.416 22.8157 266.762 22.3213 267.157 21.9257C267.751 21.1347 268.69 20.7392 269.976 20.7392H280.951C282.237 20.7392 283.572 20.6897 284.956 20.5908C286.34 20.492 287.626 20.5414 288.812 20.7392C289.9 20.838 290.741 21.3819 291.334 22.3707C291.828 23.1618 292.076 23.9528 292.076 24.7439V41.9492C292.076 42.6414 292.076 43.4325 292.076 44.3224C292.174 45.1135 292.174 45.9045 292.076 46.6956V47.8821H299.64C301.024 47.8821 302.508 47.8821 304.09 47.8821C305.672 47.7833 307.254 47.7338 308.836 47.7338H311.802C312.297 47.7338 312.841 47.7833 313.434 47.8821C314.027 47.8821 314.472 47.8821 314.769 47.8821C315.56 47.8821 316.203 48.0305 316.697 48.3271C317.191 48.6237 317.636 49.0193 318.032 49.5137V49.662C318.427 50.0575 318.625 50.4531 318.625 50.8486C318.724 51.2441 318.774 51.5408 318.774 51.7385C318.971 52.5296 318.971 53.2217 318.774 53.815V64.4942Z" fill="white"/>
</svg>
