<svg width="594" height="103" viewBox="0 0 594 103" fill="none"
   xmlns="http://www.w3.org/2000/svg">
   <path d="M66.68 40.168V43.144C66.68 44.168 66.648 45.32 66.584 46.6C66.584 47.88 66.488 49.064 66.296 50.152C66.104 51.304 65.88 52.424 65.624 53.512C65.368 54.536 65.048 55.56 64.664 56.584C64.408 57.288 64.184 57.928 63.992 58.504C63.8 59.016 63.544 59.432 63.224 59.752C63.224 59.816 63.192 59.848 63.128 59.848C63.128 59.848 63.128 59.88 63.128 59.944C62.68 60.776 62.264 61.448 61.88 61.96C61.624 62.408 61.304 62.856 60.92 63.304C60.536 63.688 60.152 64.072 59.768 64.456C59.448 64.776 59.096 65.096 58.712 65.416C58.392 65.736 58.072 66.056 57.752 66.376C57.752 66.376 57.72 66.376 57.656 66.376C57.656 66.376 57.656 66.408 57.656 66.472C57.336 66.792 57.016 67.272 56.696 67.912C56.632 67.976 56.6 68.04 56.6 68.104C56.6 68.168 56.568 68.232 56.504 68.296L56.216 68.776C56.152 68.84 56.088 68.936 56.024 69.064C56.024 69.128 55.992 69.16 55.928 69.16C55.672 69.608 55.352 70.024 54.968 70.408C54.648 70.664 54.264 70.984 53.816 71.368C53.432 71.688 53.016 71.912 52.568 72.04H52.088C52.024 72.296 51.928 72.584 51.8 72.904C51.736 73.16 51.64 73.416 51.512 73.672C51.448 73.736 51.384 73.832 51.32 73.96C51.32 74.088 51.256 74.216 51.128 74.344C51.064 74.408 51 74.472 50.936 74.536C50.872 74.6 50.84 74.696 50.84 74.824C50.776 75.528 50.712 76.584 50.648 77.992C50.648 79.4 50.616 80.872 50.552 82.408C50.552 84.008 50.552 85.512 50.552 86.92C50.552 88.328 50.52 89.384 50.456 90.088C50.456 90.152 50.328 90.056 50.072 89.8C50.008 89.608 49.944 89.416 49.88 89.224C49.88 89.032 49.816 88.84 49.688 88.648L48.728 84.328C48.408 83.368 48.248 82.184 48.248 80.776C48.248 79.368 48.248 77.96 48.248 76.552C48.312 75.208 48.216 74.056 47.96 73.096C47.96 73.096 47.928 73.096 47.864 73.096C47.864 73.16 47.864 73.224 47.864 73.288C47.864 73.352 47.832 73.352 47.768 73.288C47.704 73.224 47.64 73.192 47.576 73.192C47.448 73.128 47.32 73.032 47.192 72.904C47.128 72.84 47.032 72.776 46.904 72.712C46.84 72.648 46.744 72.584 46.616 72.52C46.36 72.776 46.168 73.032 46.04 73.288C45.912 73.416 45.848 73.512 45.848 73.576L45.272 74.248C44.568 75.144 44.024 76.136 43.64 77.224L43.064 78.952C42.808 79.72 42.52 80.52 42.2 81.352C41.88 82.248 41.4 83.048 40.76 83.752C40.376 84.136 40.216 84.264 40.28 84.136C40.408 84.072 40.472 84.008 40.472 83.944L40.088 84.328C39.832 84.456 39.704 84.552 39.704 84.616C39.704 84.744 39.544 84.84 39.224 84.904C39.16 84.904 39.032 84.872 38.84 84.808C38.712 84.744 38.584 84.744 38.456 84.808C38.392 84.808 38.328 84.808 38.264 84.808C38.2 84.872 38.104 84.904 37.976 84.904L37.304 85.384C37.176 85.448 36.984 85.576 36.728 85.768C36.536 85.96 36.344 85.96 36.152 85.768C36.088 85.704 36.024 85.608 35.96 85.48C35.96 85.352 35.896 85.256 35.768 85.192C35.704 85.128 35.64 85.128 35.576 85.192C35.512 85.32 35.448 85.352 35.384 85.288C35.32 85.224 35.256 85.16 35.192 85.096C35.128 85.032 35.064 84.968 35 84.904C34.744 84.776 34.488 84.584 34.232 84.328C33.976 84.072 33.72 83.848 33.464 83.656C33.208 83.4 32.984 83.208 32.792 83.08C32.664 83.4 32.6 83.72 32.6 84.04C32.6 84.424 32.536 84.776 32.408 85.096C32.344 85.352 32.248 85.576 32.12 85.768C32.056 85.96 32.024 86.152 32.024 86.344C31.96 87.048 31.928 88.072 31.928 89.416C31.928 90.824 31.928 92.296 31.928 93.832C31.928 95.368 31.896 96.808 31.832 98.152C31.768 99.56 31.672 100.616 31.544 101.32C31.48 101.896 31.416 101.992 31.352 101.608C31.352 101.224 31.32 100.584 31.256 99.688C31.256 98.792 31.224 97.864 31.16 96.904C31.16 96.008 31.16 95.272 31.16 94.696C31.096 93.736 31.032 92.52 30.968 91.048C30.968 89.576 30.936 88.104 30.872 86.632C30.872 85.224 30.84 84.04 30.776 83.08C30.52 83.272 30.296 83.496 30.104 83.752C29.72 84.2 29.368 84.648 29.048 85.096C28.728 85.544 28.312 85.928 27.8 86.248C27.736 86.76 27.672 87.272 27.608 87.784C27.544 88.296 27.48 88.808 27.416 89.32C27.352 90.28 27.224 91.208 27.032 92.104C26.904 93 26.776 93.896 26.648 94.792C26.584 95.176 26.52 95.528 26.456 95.848C26.456 96.232 26.392 96.584 26.264 96.904C26.2 97.16 26.136 97.544 26.072 98.056C26.008 98.632 25.944 98.792 25.88 98.536C25.752 97.064 25.688 95.464 25.688 93.736C25.688 92.072 25.624 90.536 25.496 89.128C25.496 89.064 25.432 89.032 25.304 89.032C25.176 89.032 25.112 89.064 25.112 89.128C24.984 90.536 24.92 92.136 24.92 93.928C24.92 95.72 24.856 97.352 24.728 98.824C24.728 99.08 24.664 98.984 24.536 98.536C24.472 98.088 24.408 97.768 24.344 97.576C24.152 96.872 23.992 96.072 23.864 95.176C23.736 94.28 23.608 93.544 23.48 92.968C23.352 91.816 23.224 90.664 23.096 89.512C23.032 88.424 22.904 87.336 22.712 86.248L22.136 85.672C21.944 85.352 21.752 85.032 21.56 84.712C21.432 84.456 21.304 84.2 21.176 83.944C20.664 82.792 20.184 81.64 19.736 80.488C19.352 79.336 18.904 78.216 18.392 77.128L16.952 74.152C16.888 74.024 16.856 73.928 16.856 73.864C16.856 73.8 16.824 73.736 16.76 73.672C16.632 73.928 16.568 74.216 16.568 74.536C16.632 74.92 16.568 75.272 16.376 75.592C16.312 75.656 16.248 75.56 16.184 75.304C16.12 75.112 16.056 74.984 15.992 74.92C15.928 74.536 15.832 74.248 15.704 74.056C15.704 74.184 15.64 74.312 15.512 74.44C15.448 74.568 15.32 74.728 15.128 74.92C14.936 75.112 14.744 75.304 14.552 75.496C14.424 75.688 14.264 75.848 14.072 75.976C13.752 76.424 13.496 76.936 13.304 77.512C13.176 78.152 13.048 78.728 12.92 79.24C12.856 79.496 12.792 79.752 12.728 80.008C12.728 80.264 12.664 80.52 12.536 80.776C12.472 81.032 12.408 81.416 12.344 81.928C12.28 82.44 12.216 82.568 12.152 82.312C11.448 81.608 11.128 81.32 11.192 81.448C11.256 81.64 11.448 81.96 11.768 82.408C12.088 82.92 12.28 83.336 12.344 83.656C12.408 84.04 12.088 84.072 11.384 83.752C10.744 83.56 10.424 83.112 10.424 82.408C10.488 81.704 10.616 80.904 10.808 80.008C11.064 79.112 11.128 78.344 11 77.704C11 77.576 10.936 77.448 10.808 77.32C10.744 77.192 10.712 77.192 10.712 77.32C10.648 77.64 10.616 78.12 10.616 78.76C10.616 79.4 10.616 79.912 10.616 80.296C10.616 80.744 10.52 80.808 10.328 80.488C10.008 79.784 9.912 79.048 10.04 78.28C10.168 77.512 10.168 76.776 10.04 76.072C9.976 75.688 9.816 75.368 9.56 75.112C9.432 75.048 9.304 74.952 9.176 74.824C9.048 74.696 8.92 74.6 8.792 74.536C8.728 74.536 8.664 74.568 8.6 74.632C8.6 74.76 8.568 74.856 8.504 74.92C8.312 74.92 8.216 74.952 8.216 75.016C8.152 75.528 8.152 76.2 8.216 77.032C8.344 77.928 8.408 78.664 8.408 79.24C8.472 79.816 8.28 79.976 7.832 79.72C7.192 79.208 7 78.44 7.256 77.416C7.576 76.392 7.672 75.464 7.544 74.632C7.544 74.504 7.512 74.344 7.448 74.152C7.384 73.96 7.288 73.928 7.16 74.056C7.032 74.248 7 74.536 7.064 74.92C7.128 75.304 7.064 75.464 6.872 75.4C6.616 75.272 6.52 75.048 6.584 74.728C6.712 74.408 6.744 74.12 6.68 73.864L6.008 72.904C5.752 72.776 5.528 72.648 5.336 72.52C4.632 72.008 4.28 71.304 4.28 70.408V52.36C3.064 50.376 2.168 48.52 1.592 46.792C1.08 45 0.984 43.56 1.304 42.472C1.688 41.384 2.68 40.84 4.28 40.84V11.08C4.28 10.696 4.248 10.28 4.184 9.832C4.184 9.32 4.216 8.84 4.28 8.392C4.28 7.752 4.44 7.24 4.76 6.856C5.016 6.472 5.368 6.184 5.816 5.992C6.2 5.864 6.52 5.8 6.776 5.8C7.096 5.736 7.416 5.736 7.736 5.8C8.12 5.8 8.472 5.8 8.792 5.8H32.792C33.816 5.8 34.84 5.8 35.864 5.8C36.888 5.8 37.912 5.864 38.936 5.992C45.976 6.568 51.896 8.68 56.696 12.328C57.08 12.584 57.368 12.808 57.56 13C57.752 13.128 57.912 13.256 58.04 13.384C59.192 14.344 60.312 15.528 61.4 16.936C62.168 17.768 62.808 18.728 63.32 19.816C64.536 22.056 65.432 24.584 66.008 27.4C66.008 27.464 66.008 27.496 66.008 27.496C66.072 27.496 66.104 27.528 66.104 27.592C66.168 27.848 66.232 28.136 66.296 28.456C66.36 28.712 66.392 29 66.392 29.32C66.584 30.152 66.68 31.048 66.68 32.008C66.808 35.016 66.808 37.736 66.68 40.168ZM28.664 24.808L28.088 24.232C27.384 23.528 27.096 23.208 27.224 23.272C27.352 23.336 27.576 23.56 27.896 23.944C28.28 24.328 28.408 24.648 28.28 24.904V53.128C28.28 57.8 27.736 61.224 26.648 63.4C25.624 65.576 24.216 66.76 22.424 66.952C20.696 67.144 18.808 66.664 16.76 65.512C14.712 64.296 12.696 62.664 10.712 60.616C8.728 58.568 6.936 56.392 5.336 54.088C3.8 51.784 2.648 49.608 1.88 47.56C1.112 45.448 0.92 43.784 1.304 42.568C1.752 41.288 2.936 40.712 4.856 40.84C6.776 40.904 9.624 41.96 13.4 44.008C17.24 45.992 22.2 49.224 28.28 53.704L29.048 54.28H33.08C33.912 54.28 34.712 54.248 35.48 54.184C36.312 54.056 37.144 53.864 37.976 53.608C38.488 53.416 38.968 53.128 39.416 52.744C39.48 52.744 39.512 52.744 39.512 52.744C39.512 52.68 39.544 52.648 39.608 52.648C39.736 52.52 39.864 52.36 39.992 52.168C40.12 51.976 40.248 51.784 40.376 51.592C40.76 50.952 41.048 50.28 41.24 49.576C41.496 48.808 41.688 48.104 41.816 47.464C41.816 47.4 41.816 47.336 41.816 47.272C41.88 47.144 41.912 47.048 41.912 46.984C42.04 46.6 42.104 46.216 42.104 45.832C42.168 45.384 42.232 44.968 42.296 44.584C42.296 43.88 42.296 43.112 42.296 42.28C42.36 41.384 42.392 40.488 42.392 39.592V38.152C42.392 37.512 42.36 36.904 42.296 36.328C42.296 35.688 42.296 35.048 42.296 34.408C42.296 34.216 42.264 33.896 42.2 33.448C42.2 32.936 42.2 32.456 42.2 32.008C42.136 31.304 42.008 30.664 41.816 30.088C41.688 29.448 41.464 28.84 41.144 28.264C41.144 28.264 41.08 28.136 40.952 27.88C40.888 27.752 40.76 27.592 40.568 27.4C40.568 27.336 40.504 27.24 40.376 27.112L39.8 26.536C39.352 26.152 38.904 25.96 38.456 25.96C38.008 25.96 37.528 26.024 37.016 26.152C36.504 26.216 35.96 26.344 35.384 26.536C34.808 26.664 34.232 26.76 33.656 26.824C33.4 26.888 33.112 26.952 32.792 27.016C32.536 27.016 32.28 26.984 32.024 26.92C31.576 26.792 31.128 26.6 30.68 26.344C30.232 26.024 29.816 25.736 29.432 25.48C29.112 25.16 28.856 24.936 28.664 24.808ZM108.655 86.152C108.591 86.472 108.559 86.984 108.559 87.688C108.559 88.392 108.463 88.584 108.271 88.264C108.015 87.752 107.951 87.144 108.079 86.44C108.271 85.8 108.207 85.224 107.887 84.712C107.759 84.456 107.695 84.584 107.695 85.096C107.695 85.672 107.695 86.216 107.695 86.728C107.695 87.24 107.631 87.4 107.503 87.208C107.247 86.568 107.151 85.896 107.215 85.192C107.343 84.552 107.343 83.912 107.215 83.272C106.895 83.016 106.575 82.728 106.255 82.408C105.999 82.088 105.775 81.8 105.583 81.544C105.327 81.224 105.103 80.904 104.911 80.584C104.719 80.328 104.527 80.072 104.335 79.816C103.823 79.304 103.343 78.664 102.895 77.896L101.743 75.88C101.743 75.816 101.647 75.592 101.455 75.208C101.263 74.888 101.103 74.664 100.975 74.536C100.847 74.408 100.719 74.312 100.591 74.248C100.335 74.248 100.207 74.344 100.207 74.536C100.143 75.176 100.111 75.784 100.111 76.36C100.111 77 100.047 77.64 99.9185 78.28C99.9185 78.408 99.8865 78.312 99.8225 77.992C99.7585 77.672 99.7265 77.416 99.7265 77.224C99.6625 76.712 99.5985 76.168 99.5345 75.592C99.5345 75.016 99.5025 74.472 99.4385 73.96H98.8625C95.0225 73.832 91.5345 73.288 88.3985 72.328C85.2625 71.368 82.5745 69.896 80.3345 67.912L79.7585 67.432L79.0865 66.76C77.4225 64.968 76.0465 62.856 74.9585 60.424C73.9345 57.992 73.2625 55.112 72.9425 51.784C72.8785 51.784 72.8465 51.72 72.8465 51.592C72.7825 51.464 72.7505 51.144 72.7505 50.632C72.7505 50.568 72.7505 50.504 72.7505 50.44C72.8145 50.376 72.8465 50.312 72.8465 50.248C72.7825 49.928 72.7505 49.608 72.7505 49.288C72.7505 48.904 72.7505 48.52 72.7505 48.136V47.464C72.8145 43.624 73.4225 40.2 74.5745 37.192C75.7265 34.184 77.3265 31.624 79.3745 29.512C79.5025 29.448 79.5665 29.384 79.5665 29.32C79.6305 29.256 79.6945 29.192 79.7585 29.128C79.8225 29.064 79.9505 28.968 80.1425 28.84C80.3345 28.648 80.4305 28.552 80.4305 28.552C80.6225 28.36 80.7825 28.232 80.9105 28.168C85.6465 24.136 92.0465 22.12 100.111 22.12H102.127C102.383 22.12 102.543 22.152 102.607 22.216C103.183 22.216 103.599 22.248 103.855 22.312C104.751 22.248 105.423 22.312 105.871 22.504C106.191 22.568 106.511 22.632 106.831 22.696C107.151 22.696 107.471 22.76 107.791 22.888C111.119 23.528 113.999 24.648 116.431 26.248C118.863 27.784 120.879 29.64 122.479 31.816C122.799 32.072 123.055 32.392 123.247 32.776C123.439 33.16 123.631 33.512 123.823 33.832L124.591 35.176C124.655 35.368 124.719 35.56 124.783 35.752C124.911 35.88 125.007 36.04 125.071 36.232C125.199 36.424 125.295 36.616 125.359 36.808C125.423 37 125.487 37.192 125.551 37.384C125.871 38.28 126.159 39.208 126.415 40.168C126.735 41.128 126.959 42.088 127.087 43.048C127.087 43.304 127.119 43.496 127.183 43.624C127.311 44.136 127.375 44.648 127.375 45.16C127.375 45.672 127.407 46.184 127.471 46.696V51.112C127.471 52.008 127.087 52.744 126.319 53.32C126.127 53.448 125.903 53.64 125.647 53.896C125.519 54.216 125.391 54.376 125.263 54.376C125.263 54.376 125.135 54.248 124.879 53.992C124.751 53.992 124.559 54.024 124.302 54.088C124.047 54.152 123.855 54.216 123.727 54.28C123.471 54.344 123.247 54.408 123.055 54.472C122.863 54.472 122.639 54.472 122.383 54.472C121.871 54.536 121.391 54.664 120.943 54.856C120.495 55.048 120.015 55.208 119.503 55.336C119.119 55.4 118.703 55.432 118.255 55.432C117.807 55.432 117.359 55.432 116.911 55.432C116.335 55.496 115.791 55.624 115.279 55.816C114.831 56.008 114.351 56.072 113.839 56.008C113.455 55.944 113.071 55.88 112.687 55.816C112.303 55.688 111.887 55.592 111.439 55.528C111.183 55.592 110.927 55.656 110.671 55.72C110.479 55.784 110.255 55.848 109.999 55.912C109.807 55.976 109.615 56.008 109.423 56.008C109.231 56.008 109.039 56.072 108.847 56.2C108.655 56.328 108.367 56.584 107.983 56.968H121.135C121.391 56.968 121.647 56.968 121.903 56.968C122.223 56.904 122.543 56.872 122.863 56.872H123.343C123.727 56.872 124.175 56.936 124.687 57.064C124.815 57.064 124.911 57.096 124.975 57.16C125.039 57.16 125.103 57.16 125.167 57.16C125.615 57.352 125.935 57.704 126.127 58.216C126.255 58.6 126.287 58.92 126.223 59.176C126.223 59.624 126.127 60.136 125.935 60.712L125.647 61.48C125.263 62.504 124.751 63.368 124.111 64.072C123.855 64.392 123.599 64.712 123.343 65.032C123.087 65.352 122.799 65.672 122.479 65.992C122.223 66.248 121.967 66.504 121.711 66.76C121.455 67.016 121.167 67.272 120.847 67.528L120.271 68.104C119.951 68.424 119.663 68.808 119.406 69.256C119.215 69.64 118.991 70.024 118.735 70.408C118.543 70.6 118.415 70.76 118.351 70.888C118.479 70.76 118.479 70.824 118.351 71.08C118.223 71.336 118.095 71.4 117.967 71.272C117.839 71.592 117.679 71.88 117.487 72.136C117.359 72.392 117.167 72.776 116.911 73.288C116.783 73.608 116.623 73.896 116.431 74.152C116.303 74.472 116.175 74.792 116.047 75.112C115.663 75.816 115.311 76.392 114.991 76.84C114.927 77.032 114.831 77.192 114.703 77.32C114.639 77.512 114.543 77.672 114.415 77.8L114.031 78.376C113.967 78.44 113.903 78.536 113.839 78.664C113.775 78.792 113.679 78.92 113.551 79.048C113.167 79.496 112.783 79.912 112.399 80.296C112.015 80.744 111.631 81.192 111.247 81.64L110.575 82.312C110.447 82.504 110.287 82.696 110.095 82.888C109.967 83.08 109.807 83.24 109.615 83.368C109.359 83.624 109.167 83.752 109.039 83.752C108.975 84.136 108.911 84.52 108.847 84.904C108.847 85.352 108.783 85.768 108.655 86.152ZM96.6545 41.704H97.1345C97.9665 41.704 98.7985 41.704 99.6305 41.704C100.463 41.64 101.295 41.64 102.127 41.704L103.951 41.608V40.456C103.887 40.392 103.855 40.328 103.855 40.264C103.855 40.008 103.823 39.72 103.759 39.4C103.759 39.08 103.727 38.792 103.663 38.536L103.087 37.192C103.023 37.128 102.991 37.096 102.991 37.096C102.991 37.032 102.959 36.968 102.895 36.904C102.575 36.456 102.223 36.168 101.839 36.04C101.839 35.976 101.743 35.944 101.551 35.944H101.455C101.007 35.944 100.559 35.976 100.111 36.04C99.6625 36.04 99.2145 36.072 98.7665 36.136C98.6385 36.2 98.4465 36.264 98.1905 36.328C97.9985 36.328 97.8065 36.392 97.6145 36.52C97.5505 36.584 97.5185 36.648 97.5185 36.712C97.5185 36.712 97.4865 36.744 97.4225 36.808C97.2945 36.936 97.1985 37.096 97.1345 37.288C97.0705 37.48 96.9745 37.64 96.8465 37.768C96.4625 38.792 96.2705 39.528 96.2705 39.976C96.3345 40.424 96.4625 41 96.6545 41.704ZM99.2465 59.944C99.3745 60.008 99.7585 60.04 100.399 60.04C100.783 59.912 101.135 59.72 101.455 59.464C101.839 59.208 102.159 58.952 102.415 58.696L103.279 57.832C103.791 57.448 104.175 57.224 104.431 57.16C104.687 57.096 104.975 57.032 105.295 56.968C104.847 56.84 104.399 56.712 103.951 56.584C103.567 56.456 103.151 56.328 102.703 56.2C101.999 55.944 101.295 55.656 100.591 55.336C99.9505 55.016 99.2785 54.728 98.5745 54.472L96.6545 53.896C96.5265 53.768 96.3985 53.704 96.2705 53.704V54.184C96.2705 54.248 96.2705 54.536 96.2705 55.048C96.3345 55.496 96.3665 55.784 96.3665 55.912C96.4305 56.616 96.5905 57.32 96.8465 58.024C97.1665 58.664 97.5825 59.176 98.0945 59.56L98.8625 59.848C98.9265 59.912 99.0545 59.944 99.2465 59.944ZM185.415 23.08C185.927 23.144 186.375 23.432 186.759 23.944C187.207 24.392 187.399 24.872 187.335 25.384C187.335 25.64 187.303 25.896 187.239 26.152C187.047 26.792 186.759 27.464 186.375 28.168C186.183 28.744 185.927 29.352 185.607 29.992L182.151 38.248C181.895 39.144 181.607 40.04 181.287 40.936C181.031 41.832 180.743 42.664 180.423 43.432C179.911 44.84 179.399 46.12 178.887 47.272C178.439 48.424 177.959 49.256 177.447 49.768L175.335 54.76C175.079 55.528 174.823 56.264 174.567 56.968C174.375 57.672 174.151 58.344 173.895 58.984C173.703 59.496 173.511 60.008 173.319 60.52C173.127 60.968 172.935 61.352 172.743 61.672C171.847 64.552 170.951 66.568 170.055 67.72C170.055 67.784 170.023 67.816 169.959 67.816C169.959 67.816 169.959 67.848 169.959 67.912C169.767 68.488 169.511 69.096 169.191 69.736C169.127 69.928 169.063 70.12 168.999 70.312C168.935 70.504 168.839 70.696 168.711 70.888C168.455 71.4 168.167 71.816 167.847 72.136C167.911 72.072 167.847 72.136 167.655 72.328C167.463 72.456 167.335 72.552 167.271 72.616C167.079 72.936 166.919 73.288 166.791 73.672C166.727 74.056 166.631 74.44 166.503 74.824C166.439 75.08 166.311 75.336 166.119 75.592C165.991 75.912 165.863 76.232 165.735 76.552C165.671 76.744 165.607 76.936 165.543 77.128C165.479 77.32 165.383 77.512 165.255 77.704C164.871 78.536 164.455 79.24 164.007 79.816C163.943 79.88 163.847 79.976 163.719 80.104C163.591 80.232 163.463 80.36 163.335 80.488C163.335 80.488 163.303 80.488 163.239 80.488C163.239 80.488 163.239 80.52 163.239 80.584C163.175 80.584 163.143 80.584 163.143 80.584C163.143 80.648 163.111 80.68 163.047 80.68C162.919 81.32 162.823 81.96 162.759 82.6C162.759 83.24 162.695 83.88 162.567 84.52C162.503 84.968 162.439 85.384 162.375 85.768C162.375 86.216 162.311 86.664 162.183 87.112C162.119 87.24 162.023 87.432 161.895 87.688C161.831 87.944 161.799 88.008 161.799 87.88C161.671 86.92 161.607 85.928 161.607 84.904C161.671 83.944 161.607 82.984 161.415 82.024C160.711 81.32 160.391 80.936 160.455 80.872C160.519 80.872 160.711 80.968 161.031 81.16C161.351 81.416 161.575 81.544 161.703 81.544C161.831 81.544 161.543 81.224 160.839 80.584C160.647 80.456 160.487 80.296 160.359 80.104C160.231 80.104 160.167 80.072 160.167 80.008L159.111 78.664C158.983 78.408 158.823 78.12 158.631 77.8C158.503 77.544 158.375 77.288 158.247 77.032C157.991 76.584 157.703 76.136 157.383 75.688C157.063 75.304 156.743 74.952 156.423 74.632C156.359 74.568 156.231 74.44 156.039 74.248C155.847 74.056 155.719 73.96 155.655 73.96C155.527 74.6 155.463 75.24 155.463 75.88C155.463 76.584 155.399 77.256 155.271 77.896C155.271 77.96 155.207 77.96 155.079 77.896C155.015 77.896 154.951 77.864 154.887 77.8C154.631 77.672 154.407 77.416 154.215 77.032C154.023 76.712 153.863 76.424 153.735 76.168C153.543 75.848 153.351 75.464 153.159 75.016C153.031 74.632 152.839 74.312 152.583 74.056C152.519 74.376 152.487 74.792 152.487 75.304C152.487 75.816 152.231 76.04 151.719 75.976C151.463 75.976 151.207 75.784 150.951 75.4C150.695 75.08 150.471 74.696 150.279 74.248C150.087 73.864 149.927 73.448 149.799 73C149.735 73 149.639 73 149.511 73C149.447 72.936 149.383 72.904 149.319 72.904C148.615 72.712 148.135 72.392 147.879 71.944C147.623 71.496 147.399 71.08 147.207 70.696C147.143 70.696 147.111 70.696 147.111 70.696C147.111 70.632 147.111 70.6 147.111 70.6L146.823 69.928C146.567 69.288 146.311 68.648 146.055 68.008C145.799 67.368 145.543 66.728 145.287 66.088L144.423 64.168C144.423 64.104 144.391 64.072 144.327 64.072C144.327 64.008 144.327 63.944 144.327 63.88C144.199 63.688 143.975 63.368 143.655 62.92C143.527 62.792 143.431 62.664 143.367 62.536C142.855 61.576 142.375 60.584 141.927 59.56C141.543 58.472 141.191 57.416 140.871 56.392C140.615 55.944 140.391 55.336 140.199 54.568C139.879 53.864 139.527 53.032 139.143 52.072C138.823 51.112 138.503 50.12 138.183 49.096L132.423 35.08C132.231 34.76 132.039 34.408 131.847 34.024C131.719 33.64 131.591 33.256 131.463 32.872C131.399 32.68 131.335 32.488 131.271 32.296C131.207 32.104 131.111 31.88 130.983 31.624C130.919 31.496 130.855 31.368 130.791 31.24C130.727 31.048 130.663 30.856 130.599 30.664L130.407 30.184C130.279 29.864 130.151 29.576 130.023 29.32C129.895 29 129.767 28.712 129.639 28.456C129.447 28.072 129.255 27.688 129.063 27.304C128.935 26.856 128.807 26.44 128.679 26.056C128.615 25.8 128.583 25.48 128.583 25.096C128.711 24.328 129.095 23.752 129.735 23.368C129.799 23.304 129.927 23.272 130.119 23.272C130.183 23.208 130.247 23.176 130.311 23.176C130.439 23.176 130.535 23.144 130.599 23.08C130.919 23.016 131.239 22.984 131.559 22.984C131.943 22.984 132.295 22.984 132.615 22.984C133.447 23.048 134.247 23.08 135.015 23.08C135.847 23.08 136.679 23.08 137.511 23.08H144.807C145.191 23.08 145.575 23.08 145.959 23.08C146.407 23.016 146.855 23.016 147.303 23.08C147.559 23.08 147.783 23.112 147.975 23.176C148.231 23.24 148.455 23.304 148.647 23.368C148.903 23.496 149.191 23.72 149.511 24.04C150.023 24.488 150.375 25.096 150.567 25.864C150.759 26.568 150.951 27.24 151.143 27.88C151.207 27.944 151.239 28.04 151.239 28.168C151.239 28.232 151.271 28.328 151.335 28.456L152.007 30.376C152.391 31.528 152.775 32.712 153.159 33.928C153.607 35.08 154.023 36.2 154.407 37.288L156.711 44.008L156.999 44.872L157.383 46.12L157.863 47.368V47.656C157.927 47.464 157.991 47.368 158.055 47.368C158.119 47.304 158.151 47.208 158.151 47.08L158.439 46.312C158.503 45.992 158.599 45.704 158.727 45.448C158.855 45.192 158.919 45.032 158.919 44.968C159.367 43.688 159.783 42.408 160.167 41.128C160.615 39.784 161.063 38.504 161.511 37.288L161.799 36.424C162.119 35.464 162.439 34.536 162.759 33.64C163.079 32.68 163.367 31.88 163.623 31.24C163.751 30.856 163.879 30.472 164.007 30.088C164.135 29.704 164.231 29.352 164.295 29.032C164.423 28.584 164.551 28.136 164.679 27.688C164.871 27.24 165.063 26.792 165.255 26.344C165.447 25.768 165.671 25.224 165.927 24.712C166.247 24.136 166.663 23.72 167.175 23.464C167.751 23.144 168.391 23.016 169.095 23.08C169.799 23.08 170.471 23.08 171.111 23.08H183.495C183.815 23.08 184.135 23.08 184.455 23.08C184.839 23.016 185.159 23.016 185.415 23.08ZM265.084 70.888C265.02 70.952 264.988 71.048 264.988 71.176C264.988 71.24 264.956 71.304 264.892 71.368C264.764 71.624 264.7 71.752 264.7 71.752C264.636 72.008 264.54 72.168 264.412 72.232C264.284 72.296 264.156 72.392 264.028 72.52L263.644 72.808C263.452 73.64 263.292 74.44 263.164 75.208C263.1 76.04 263.004 76.872 262.876 77.704C262.812 78.024 262.748 78.504 262.684 79.144C262.684 79.784 262.62 79.944 262.492 79.624C262.3 78.792 262.204 77.96 262.204 77.128C262.268 76.296 262.236 75.464 262.108 74.632C262.108 74.568 262.044 74.568 261.916 74.632C261.852 74.76 261.788 74.824 261.724 74.824C261.596 74.888 261.436 74.984 261.244 75.112C261.052 75.24 260.828 75.272 260.572 75.208C260.508 75.208 260.412 75.144 260.284 75.016C259.772 75.016 259.228 74.792 258.652 74.344C258.588 74.536 258.556 74.76 258.556 75.016C258.62 75.336 258.556 75.56 258.364 75.688C258.172 75.816 258.076 75.72 258.076 75.4C258.076 75.08 258.044 74.824 257.98 74.632C257.98 74.632 257.948 74.344 257.884 73.768C257.884 73.256 257.596 73.128 257.02 73.384C256.956 73.448 256.86 73.544 256.732 73.672C256.668 73.8 256.54 73.96 256.348 74.152C256.156 74.408 255.932 74.632 255.676 74.824C255.612 74.888 255.516 74.984 255.388 75.112C255.324 75.304 255.228 75.464 255.1 75.592C254.908 75.72 254.716 75.688 254.524 75.496C254.396 75.368 254.268 75.272 254.14 75.208C254.076 75.208 253.916 75.24 253.66 75.304C253.468 75.432 253.372 75.528 253.372 75.592C253.372 75.592 253.34 75.592 253.276 75.592C253.276 75.592 253.276 75.624 253.276 75.688C253.276 75.688 253.212 75.752 253.084 75.88C252.7 76.328 252.412 76.84 252.22 77.416C252.028 78.056 251.804 78.632 251.548 79.144C251.42 79.4 251.26 79.688 251.068 80.008C250.94 80.392 250.716 80.68 250.396 80.872C250.332 81.704 250.268 82.536 250.204 83.368C250.204 84.2 250.14 85.032 250.012 85.864C249.948 86.056 249.884 86.344 249.82 86.728C249.82 87.112 249.756 87.208 249.628 87.016C249.436 86.632 249.34 86.216 249.34 85.768C249.34 85.384 249.308 84.968 249.244 84.52C249.18 83.816 249.148 83.144 249.148 82.504C249.148 81.864 249.084 81.224 248.956 80.584C248.572 80.264 248.284 79.976 248.092 79.72C247.836 79.336 247.548 78.92 247.228 78.472C246.972 78.024 246.684 77.576 246.364 77.128C246.108 76.68 245.852 76.264 245.596 75.88C245.404 75.496 245.18 75.112 244.924 74.728C244.86 74.6 244.764 74.472 244.635 74.344L244.348 73.864H244.252C244.188 73.864 244.092 73.704 243.964 73.384C243.9 73.128 243.804 72.904 243.676 72.712C243.996 73.032 244.092 73.128 243.964 73C243.9 72.872 243.74 72.68 243.484 72.424C243.292 72.168 243.164 72.04 243.1 72.04L243.004 71.944L242.716 71.464C242.716 71.4 242.684 71.368 242.62 71.368C242.62 71.304 242.62 71.24 242.62 71.176C242.428 70.664 242.364 70.088 242.427 69.448C242.492 68.744 242.524 68.136 242.524 67.624V44.872C242.524 45.96 242.556 46.472 242.62 46.408C242.684 46.344 242.748 46.056 242.812 45.544C242.876 45.032 242.876 44.616 242.812 44.296C242.748 43.912 242.588 43.976 242.332 44.488L241.948 45.064C241.82 45.192 241.756 45.288 241.756 45.352C241.82 45.352 241.788 45.416 241.66 45.544C241.66 45.544 241.628 45.576 241.564 45.64C241.564 45.64 241.564 45.672 241.564 45.736C241.244 46.184 240.924 46.664 240.604 47.176C240.348 47.688 240.06 48.2 239.74 48.712C239.228 49.544 238.716 50.408 238.204 51.304C237.692 52.2 237.148 53.064 236.572 53.896C236.508 54.088 236.412 54.28 236.284 54.472C236.156 54.664 236.028 54.824 235.9 54.952C235.708 55.208 235.484 55.464 235.228 55.72C235.036 55.976 234.78 56.168 234.46 56.296C234.396 56.36 234.3 56.456 234.172 56.584C234.108 56.712 233.98 56.936 233.788 57.256C233.724 57.32 233.628 57.352 233.5 57.352C233.436 58.056 233.372 59.144 233.308 60.616C233.308 62.024 233.276 63.56 233.212 65.224C233.212 66.888 233.18 68.456 233.116 69.928C233.116 71.336 233.084 72.392 233.02 73.096C233.02 73.16 232.956 73.192 232.828 73.192C232.7 73.192 232.636 73.16 232.636 73.096C232.572 72.2 232.508 70.792 232.444 68.872C232.444 66.952 232.444 65 232.444 63.016C232.444 61.032 232.38 59.464 232.252 58.312C232.252 58.312 232.156 58.216 231.964 58.024L231.868 58.12C231.868 58.12 231.868 58.152 231.868 58.216C231.868 58.216 231.836 58.216 231.772 58.216C231.772 58.344 231.708 58.472 231.58 58.6C231.452 58.856 231.292 59.112 231.1 59.368C230.908 59.56 230.684 59.72 230.428 59.848C230.3 60.168 230.268 60.584 230.332 61.096C230.396 61.608 230.268 61.832 229.948 61.768C229.628 61.64 229.532 61.352 229.66 60.904C229.788 60.392 229.788 59.944 229.66 59.56C229.532 59.432 229.404 59.272 229.276 59.08C229.148 58.888 229.02 58.76 228.892 58.696C228.7 58.504 228.604 58.408 228.604 58.408C228.54 58.664 228.444 58.92 228.316 59.176C228.252 59.432 228.188 59.624 228.124 59.752C228.124 59.432 228.028 59.048 227.836 58.6C227.708 58.728 227.644 58.824 227.644 58.888C227.644 58.888 227.58 58.952 227.452 59.08C227.324 59.272 227.196 59.496 227.068 59.752C226.94 60.008 226.812 60.232 226.684 60.424C226.62 60.488 226.492 60.616 226.3 60.808C226.172 60.936 226.044 60.968 225.916 60.904C225.788 60.84 225.692 60.776 225.628 60.712C225.564 60.584 225.468 60.488 225.34 60.424C225.02 60.104 224.796 59.624 224.668 58.984C224.54 58.536 224.412 58.12 224.284 57.736C224.22 57.288 224.124 56.84 223.996 56.392C223.74 56.264 223.516 56.104 223.324 55.912C223.196 55.656 223.036 55.432 222.844 55.24L222.364 54.472C221.852 53.64 221.34 52.808 220.828 51.976C220.316 51.08 219.804 50.216 219.292 49.384L218.428 47.944C218.236 47.688 218.044 47.432 217.852 47.176C217.724 46.92 217.564 46.664 217.372 46.408L217.084 45.832C217.02 45.704 216.956 45.576 216.892 45.448C216.828 45.32 216.732 45.192 216.604 45.064C216.604 45 216.572 44.968 216.508 44.968C216.508 44.968 216.508 44.936 216.508 44.872C216.508 44.872 216.444 44.808 216.316 44.68C216.316 44.36 216.252 44.136 216.124 44.008C216.06 43.816 216.028 43.976 216.028 44.488V68.872C216.028 69.192 216.028 69.544 216.028 69.928C216.092 70.248 216.092 70.568 216.028 70.888C216.028 70.76 215.996 70.824 215.932 71.08C215.868 71.272 215.868 71.336 215.932 71.272C215.868 71.528 215.708 71.784 215.452 72.04L214.876 72.616C214.812 72.872 214.748 73.128 214.684 73.384C214.684 73.704 214.62 74.024 214.492 74.344C214.364 75.176 214.204 75.976 214.012 76.744C213.884 77.576 213.692 78.408 213.436 79.24C213.372 79.432 213.276 79.752 213.148 80.2C213.02 80.648 212.892 80.968 212.764 81.16C212.38 81.544 212.092 81.416 211.9 80.776C211.708 80.2 211.58 79.88 211.516 79.816C211.388 79.304 211.26 78.76 211.132 78.184C211.004 77.672 210.876 77.128 210.748 76.552C210.684 76.232 210.652 75.912 210.652 75.592C210.652 75.272 210.588 74.984 210.46 74.728C210.332 74.856 210.172 74.984 209.98 75.112C209.788 75.304 209.596 75.464 209.404 75.592C209.276 76.808 209.18 78.056 209.116 79.336C209.116 80.68 209.052 81.992 208.924 83.272C208.924 83.336 208.86 83.304 208.732 83.176C208.604 83.048 208.54 82.952 208.54 82.888C207.964 81.928 207.772 81.032 207.964 80.2C208.156 79.432 208.348 78.632 208.54 77.8C208.796 76.968 208.636 76.104 208.06 75.208C207.996 75.08 207.932 74.952 207.868 74.824C207.804 74.696 207.708 74.568 207.58 74.44C207.452 74.44 207.388 74.44 207.388 74.44C207.26 75.464 207.196 76.456 207.196 77.416C207.196 78.44 207.132 79.432 207.004 80.392C207.004 80.392 206.876 80.392 206.62 80.392C206.364 80.392 206.236 80.36 206.236 80.296C206.172 79.336 206.108 78.344 206.044 77.32C206.044 76.36 205.98 75.368 205.852 74.344H205.372L205.276 74.248C205.148 74.248 205.084 74.248 205.084 74.248C205.02 75.08 204.988 75.88 204.988 76.648C204.988 77.48 204.924 78.312 204.796 79.144C204.796 79.208 204.668 79.112 204.412 78.856C204.156 78.728 204.028 78.632 204.028 78.568C203.9 77.864 203.836 77.192 203.836 76.552C203.836 75.912 203.804 75.272 203.74 74.632C203.676 74.696 203.612 74.792 203.548 74.92C203.484 75.048 203.484 75.048 203.548 74.92C203.484 75.112 203.356 75.304 203.164 75.496C203.1 75.56 203.004 75.624 202.876 75.688C202.748 75.816 202.62 75.944 202.492 76.072C202.3 76.456 202.172 76.84 202.108 77.224C202.044 77.672 201.916 78.12 201.724 78.568C201.66 78.632 201.596 78.728 201.532 78.856C201.532 78.984 201.468 79.112 201.34 79.24C201.212 79.368 201.084 79.368 200.956 79.24C200.7 78.984 200.54 78.536 200.476 77.896C200.412 77.256 200.316 76.84 200.188 76.648C199.868 76.328 199.58 75.912 199.324 75.4C199.132 74.952 198.876 74.408 198.556 73.768C198.492 73.896 198.46 73.992 198.46 74.056C198.46 74.184 198.428 74.312 198.364 74.44C198.3 74.504 198.14 74.472 197.884 74.344C197.692 74.28 197.596 74.248 197.596 74.248C197.34 74.12 197.148 73.992 197.02 73.864C197.084 73.992 197.116 74.216 197.116 74.536C197.116 74.856 196.988 75.368 196.732 76.072C196.668 76.328 196.604 76.552 196.54 76.744C196.476 76.936 196.412 77.16 196.348 77.416C196.284 78.12 196.252 79.208 196.252 80.68C196.252 82.216 196.252 83.816 196.252 85.48C196.252 87.208 196.252 88.808 196.252 90.28C196.252 91.816 196.188 92.936 196.06 93.64C195.996 94.28 195.932 94.376 195.868 93.928C195.868 93.48 195.868 92.712 195.868 91.624C195.868 90.536 195.868 89.416 195.868 88.264C195.868 87.112 195.868 86.216 195.868 85.576C195.804 83.656 195.772 82.056 195.772 80.776C195.772 79.56 195.74 78.344 195.676 77.128C195.612 75.976 195.452 74.568 195.196 72.904C194.94 72.776 194.716 72.648 194.523 72.52C193.82 72.008 193.468 71.304 193.468 70.408V8.392C193.468 7.688 193.724 7.08 194.236 6.568C194.748 6.056 195.452 5.8 196.348 5.8H209.308C210.012 5.8 210.684 5.8 211.324 5.8C211.964 5.736 212.572 5.864 213.148 6.184C213.852 6.504 214.396 6.952 214.78 7.528C215.228 8.104 215.612 8.712 215.932 9.352C216.06 9.48 216.156 9.64 216.22 9.832C216.348 9.96 216.444 10.12 216.508 10.312L216.988 11.08C217.564 11.784 218.108 12.616 218.62 13.576C219.196 14.472 219.74 15.432 220.252 16.456L223.612 22.024C224.38 23.176 225.116 24.36 225.82 25.576C226.524 26.792 227.228 27.976 227.932 29.128C228.06 29.384 228.22 29.672 228.412 29.992C228.604 30.248 228.764 30.536 228.892 30.856L229.276 31.432L229.66 30.76C229.788 30.44 229.948 30.152 230.14 29.896C230.332 29.64 230.492 29.384 230.62 29.128C231.196 28.232 231.772 27.304 232.348 26.344C232.924 25.384 233.5 24.424 234.076 23.464L234.748 22.312C234.748 22.248 234.748 22.216 234.748 22.216C234.812 22.216 234.844 22.184 234.844 22.12C234.844 22.12 234.908 22.056 235.036 21.928L238.3 16.456C238.364 16.456 238.396 16.456 238.396 16.456C238.396 16.392 238.396 16.36 238.396 16.36C238.908 15.4 239.42 14.472 239.932 13.576C240.508 12.68 241.02 11.88 241.468 11.176L242.044 10.216C242.364 9.70399 242.652 9.224 242.908 8.776C243.228 8.264 243.58 7.784 243.964 7.336C243.964 7.272 243.996 7.23999 244.06 7.23999C244.38 6.792 244.828 6.44 245.404 6.184C245.98 5.864 246.588 5.736 247.228 5.8C247.932 5.8 248.604 5.8 249.244 5.8H262.492C262.876 5.8 263.164 5.864 263.356 5.992C263.548 6.056 263.772 6.152 264.028 6.27999C264.604 6.664 264.956 7.304 265.084 8.2C265.148 8.648 265.148 9.128 265.084 9.64C265.084 10.152 265.084 10.632 265.084 11.08V66.184C265.084 66.952 265.116 67.752 265.18 68.584C265.244 69.352 265.212 70.12 265.084 70.888ZM329.158 46.504C329.222 47.528 329.222 48.552 329.158 49.576C329.158 50.6 329.126 51.592 329.062 52.552C328.934 54.536 328.646 56.392 328.198 58.12C327.75 59.784 327.11 61.32 326.278 62.728C326.022 63.176 325.766 63.624 325.51 64.072C325.254 64.52 324.966 64.968 324.646 65.416C324.326 65.8 323.974 66.152 323.59 66.472C323.59 66.536 323.558 66.6 323.494 66.664C323.238 67.048 322.918 67.368 322.534 67.624C322.47 67.688 322.406 67.752 322.342 67.816C322.278 67.88 322.182 67.976 322.054 68.104C321.99 68.168 321.926 68.232 321.862 68.296C321.798 68.36 321.734 68.424 321.67 68.488L321.094 69.736C321.094 69.992 321.094 70.248 321.094 70.504C321.094 70.696 321.062 70.92 320.998 71.176C320.934 71.624 320.934 72.232 320.998 73C321.062 73.704 320.934 73.928 320.614 73.672C320.422 73.48 320.294 73.256 320.23 73C320.23 72.68 320.23 72.392 320.23 72.136C320.23 72.264 320.166 72.392 320.038 72.52C319.974 72.712 319.846 72.904 319.654 73.096C319.526 73.352 319.334 73.512 319.078 73.576C318.63 73.768 318.246 73.608 317.926 73.096C317.67 72.648 317.478 72.296 317.35 72.04C317.35 71.976 317.318 71.912 317.254 71.848C316.806 72.68 316.614 73.608 316.678 74.632C316.742 75.72 316.71 76.776 316.582 77.8C316.582 78.056 316.55 78.344 316.486 78.664C316.422 79.048 316.358 79.4 316.294 79.72C316.23 80.104 316.07 80.456 315.814 80.776C315.814 80.968 315.686 81.064 315.43 81.064C315.174 80.936 315.046 80.776 315.046 80.584C314.918 79.496 314.854 78.376 314.854 77.224C314.854 76.072 314.79 74.952 314.662 73.864C314.662 73.864 314.63 73.832 314.566 73.768C314.566 73.768 314.534 73.768 314.47 73.768C314.278 73.832 314.086 73.928 313.894 74.056C313.702 74.184 313.542 74.312 313.414 74.44C312.966 74.888 312.582 75.432 312.262 76.072C312.07 76.456 311.878 76.84 311.686 77.224C311.558 77.608 311.398 77.96 311.206 78.28C311.142 78.344 311.046 78.472 310.918 78.664C310.854 78.92 310.822 79.016 310.822 78.952C310.694 78.248 310.63 77.544 310.63 76.84C310.63 76.136 310.566 75.464 310.438 74.824C310.566 74.824 310.374 74.792 309.862 74.728C309.414 74.728 309.222 74.76 309.286 74.824C309.158 75.848 309.094 76.872 309.094 77.896C309.094 78.92 309.03 79.944 308.902 80.968C308.902 81.032 308.774 81.16 308.518 81.352C308.326 81.544 308.198 81.672 308.134 81.736C308.07 81.8 307.974 81.832 307.846 81.832C307.782 81.896 307.75 81.896 307.75 81.832C307.622 80.744 307.558 79.624 307.558 78.472C307.558 77.384 307.462 76.296 307.27 75.208C307.078 75.272 306.918 75.368 306.79 75.496C306.662 75.624 306.598 75.688 306.598 75.688C306.534 75.752 306.47 75.848 306.406 75.976C306.406 76.168 306.342 76.328 306.214 76.456C306.15 76.456 305.99 76.328 305.734 76.072C305.67 75.944 305.606 75.816 305.542 75.688C305.542 75.56 305.478 75.464 305.35 75.4C305.35 75.336 305.318 75.304 305.254 75.304C305.19 75.24 305.158 75.208 305.158 75.208C305.158 75.272 305.126 75.272 305.062 75.208H304.486C304.486 75.464 304.486 75.72 304.486 75.976C304.486 76.232 304.422 76.52 304.294 76.84C304.294 76.84 304.038 76.552 303.526 75.976C303.206 75.656 303.046 75.496 303.046 75.496C303.046 75.56 302.95 75.56 302.758 75.496C302.502 75.496 302.374 75.464 302.374 75.4C302.31 76.296 302.246 77.16 302.182 77.992C302.182 78.888 302.118 79.784 301.99 80.68C301.99 80.808 301.926 80.744 301.798 80.488C301.734 80.232 301.67 80.04 301.606 79.912C301.542 79.72 301.478 79.528 301.414 79.336C301.35 79.208 301.286 79.048 301.222 78.856C301.03 78.024 300.87 77.192 300.742 76.36C300.678 75.592 300.582 74.792 300.454 73.96H299.878C291.174 73.768 284.614 71.752 280.198 67.912L279.622 67.336C275.846 63.752 273.766 58.824 273.382 52.552C273.19 49.544 273.19 46.536 273.382 43.528C273.894 36.424 276.582 31.08 281.446 27.496C286.374 23.912 293.094 22.12 301.606 22.12H302.47C303.366 22.12 304.262 22.152 305.158 22.216C306.054 22.28 306.918 22.376 307.75 22.504C307.878 22.504 307.974 22.536 308.038 22.6C314.63 23.56 319.91 26.056 323.878 30.088C324.006 30.216 324.166 30.44 324.358 30.76C324.614 31.016 324.774 31.208 324.838 31.336C326.63 33.704 327.846 36.36 328.486 39.304C328.486 39.368 328.486 39.432 328.486 39.496C328.55 39.56 328.582 39.624 328.582 39.688C328.838 40.776 328.998 41.928 329.062 43.144C329.126 44.296 329.158 45.416 329.158 46.504ZM298.63 57.928C298.822 58.056 299.046 58.184 299.302 58.312C300.006 58.504 300.55 58.6 300.934 58.6C301.318 58.6 301.702 58.568 302.086 58.504H302.662C302.918 58.376 303.142 58.28 303.334 58.216C303.59 58.088 303.814 57.96 304.006 57.832C304.518 57.32 304.838 56.712 304.966 56.008C305.158 55.304 305.286 54.632 305.35 53.992C305.414 53.608 305.446 53.192 305.446 52.744C305.51 52.296 305.542 51.848 305.542 51.4C305.606 50.504 305.638 49.448 305.638 48.232C305.638 47.016 305.606 45.928 305.542 44.968C305.542 44.648 305.542 44.328 305.542 44.008C305.542 43.688 305.51 43.4 305.446 43.144C305.446 42.888 305.414 42.664 305.35 42.472C305.35 42.216 305.35 41.96 305.35 41.704C305.158 40.04 304.71 38.92 304.006 38.344C303.75 38.088 303.558 37.96 303.43 37.96C303.366 37.896 303.27 37.864 303.142 37.864C303.078 37.864 303.014 37.864 302.95 37.864C302.886 37.8 302.822 37.8 302.758 37.864C302.694 37.928 302.63 38.088 302.566 38.344C302.566 38.536 302.502 38.696 302.374 38.824C302.31 38.952 302.118 39.048 301.798 39.112C301.542 39.112 301.35 39.08 301.222 39.016C300.838 38.952 300.486 38.76 300.166 38.44H299.59C299.526 38.376 299.462 38.312 299.398 38.248C299.334 38.12 299.238 38.024 299.11 37.96C298.918 37.96 298.726 38.056 298.534 38.248C298.086 38.632 297.766 39.176 297.574 39.88C297.382 40.52 297.222 41.288 297.094 42.184C297.03 42.376 296.998 42.632 296.998 42.952C296.998 43.144 296.966 43.368 296.902 43.624C296.902 43.816 296.902 44.04 296.902 44.296C296.838 44.808 296.806 45.416 296.806 46.12C296.806 46.824 296.806 47.528 296.806 48.232C296.806 48.68 296.806 49.128 296.806 49.576C296.87 49.96 296.902 50.376 296.902 50.824C296.902 51.272 296.902 51.72 296.902 52.168C296.902 52.616 296.934 53 296.998 53.32C297.126 54.472 297.254 55.368 297.382 56.008C297.574 56.648 297.99 57.288 298.63 57.928ZM387.634 23.08C388.146 23.144 388.594 23.432 388.978 23.944C389.426 24.392 389.618 24.872 389.554 25.384C389.554 25.64 389.522 25.896 389.458 26.152C389.266 26.792 388.978 27.464 388.594 28.168C388.402 28.744 388.146 29.352 387.826 29.992L384.37 38.248C384.114 39.144 383.826 40.04 383.506 40.936C383.25 41.832 382.962 42.664 382.642 43.432C382.13 44.84 381.618 46.12 381.106 47.272C380.658 48.424 380.178 49.256 379.666 49.768L377.554 54.76C377.298 55.528 377.042 56.264 376.786 56.968C376.594 57.672 376.37 58.344 376.114 58.984C375.922 59.496 375.73 60.008 375.538 60.52C375.346 60.968 375.154 61.352 374.962 61.672C374.066 64.552 373.17 66.568 372.274 67.72C372.274 67.784 372.242 67.816 372.178 67.816C372.178 67.816 372.178 67.848 372.178 67.912C371.986 68.488 371.73 69.096 371.41 69.736C371.346 69.928 371.282 70.12 371.218 70.312C371.154 70.504 371.058 70.696 370.93 70.888C370.674 71.4 370.386 71.816 370.066 72.136C370.13 72.072 370.066 72.136 369.874 72.328C369.682 72.456 369.554 72.552 369.49 72.616C369.298 72.936 369.138 73.288 369.01 73.672C368.946 74.056 368.85 74.44 368.722 74.824C368.658 75.08 368.53 75.336 368.338 75.592C368.21 75.912 368.082 76.232 367.954 76.552C367.89 76.744 367.826 76.936 367.762 77.128C367.698 77.32 367.602 77.512 367.474 77.704C367.09 78.536 366.674 79.24 366.226 79.816C366.162 79.88 366.066 79.976 365.938 80.104C365.81 80.232 365.682 80.36 365.554 80.488C365.554 80.488 365.522 80.488 365.458 80.488C365.458 80.488 365.458 80.52 365.458 80.584C365.394 80.584 365.362 80.584 365.362 80.584C365.362 80.648 365.33 80.68 365.266 80.68C365.138 81.32 365.042 81.96 364.978 82.6C364.978 83.24 364.914 83.88 364.786 84.52C364.722 84.968 364.658 85.384 364.594 85.768C364.594 86.216 364.53 86.664 364.402 87.112C364.338 87.24 364.242 87.432 364.114 87.688C364.05 87.944 364.018 88.008 364.018 87.88C363.89 86.92 363.826 85.928 363.826 84.904C363.89 83.944 363.826 82.984 363.634 82.024C362.93 81.32 362.61 80.936 362.674 80.872C362.738 80.872 362.93 80.968 363.25 81.16C363.57 81.416 363.794 81.544 363.922 81.544C364.05 81.544 363.762 81.224 363.058 80.584C362.866 80.456 362.706 80.296 362.578 80.104C362.45 80.104 362.386 80.072 362.386 80.008L361.33 78.664C361.202 78.408 361.042 78.12 360.85 77.8C360.722 77.544 360.594 77.288 360.466 77.032C360.21 76.584 359.922 76.136 359.602 75.688C359.282 75.304 358.962 74.952 358.642 74.632C358.578 74.568 358.45 74.44 358.258 74.248C358.066 74.056 357.938 73.96 357.874 73.96C357.746 74.6 357.682 75.24 357.682 75.88C357.682 76.584 357.618 77.256 357.49 77.896C357.49 77.96 357.426 77.96 357.298 77.896C357.234 77.896 357.17 77.864 357.106 77.8C356.85 77.672 356.626 77.416 356.434 77.032C356.242 76.712 356.082 76.424 355.954 76.168C355.762 75.848 355.57 75.464 355.378 75.016C355.25 74.632 355.058 74.312 354.802 74.056C354.738 74.376 354.706 74.792 354.706 75.304C354.706 75.816 354.45 76.04 353.938 75.976C353.682 75.976 353.426 75.784 353.17 75.4C352.914 75.08 352.69 74.696 352.498 74.248C352.306 73.864 352.146 73.448 352.018 73C351.954 73 351.858 73 351.73 73C351.666 72.936 351.602 72.904 351.538 72.904C350.834 72.712 350.354 72.392 350.098 71.944C349.842 71.496 349.618 71.08 349.426 70.696C349.362 70.696 349.33 70.696 349.33 70.696C349.33 70.632 349.33 70.6 349.33 70.6L349.042 69.928C348.786 69.288 348.53 68.648 348.274 68.008C348.018 67.368 347.762 66.728 347.506 66.088L346.642 64.168C346.642 64.104 346.61 64.072 346.546 64.072C346.546 64.008 346.546 63.944 346.546 63.88C346.418 63.688 346.194 63.368 345.874 62.92C345.746 62.792 345.65 62.664 345.586 62.536C345.074 61.576 344.594 60.584 344.146 59.56C343.762 58.472 343.41 57.416 343.09 56.392C342.834 55.944 342.61 55.336 342.418 54.568C342.098 53.864 341.746 53.032 341.362 52.072C341.042 51.112 340.722 50.12 340.402 49.096L334.642 35.08C334.45 34.76 334.258 34.408 334.066 34.024C333.938 33.64 333.81 33.256 333.682 32.872C333.618 32.68 333.554 32.488 333.49 32.296C333.426 32.104 333.33 31.88 333.202 31.624C333.138 31.496 333.074 31.368 333.01 31.24C332.946 31.048 332.882 30.856 332.818 30.664L332.626 30.184C332.498 29.864 332.37 29.576 332.242 29.32C332.114 29 331.986 28.712 331.858 28.456C331.666 28.072 331.474 27.688 331.282 27.304C331.154 26.856 331.026 26.44 330.898 26.056C330.834 25.8 330.802 25.48 330.802 25.096C330.93 24.328 331.314 23.752 331.954 23.368C332.018 23.304 332.146 23.272 332.338 23.272C332.402 23.208 332.466 23.176 332.53 23.176C332.658 23.176 332.754 23.144 332.818 23.08C333.138 23.016 333.458 22.984 333.778 22.984C334.162 22.984 334.514 22.984 334.834 22.984C335.666 23.048 336.466 23.08 337.234 23.08C338.066 23.08 338.898 23.08 339.73 23.08H347.026C347.41 23.08 347.794 23.08 348.178 23.08C348.626 23.016 349.074 23.016 349.522 23.08C349.778 23.08 350.002 23.112 350.194 23.176C350.45 23.24 350.674 23.304 350.866 23.368C351.122 23.496 351.41 23.72 351.73 24.04C352.242 24.488 352.594 25.096 352.786 25.864C352.978 26.568 353.17 27.24 353.362 27.88C353.426 27.944 353.458 28.04 353.458 28.168C353.458 28.232 353.49 28.328 353.554 28.456L354.226 30.376C354.61 31.528 354.994 32.712 355.378 33.928C355.826 35.08 356.242 36.2 356.626 37.288L358.93 44.008L359.218 44.872L359.602 46.12L360.082 47.368V47.656C360.146 47.464 360.21 47.368 360.274 47.368C360.338 47.304 360.37 47.208 360.37 47.08L360.658 46.312C360.722 45.992 360.818 45.704 360.946 45.448C361.074 45.192 361.138 45.032 361.138 44.968C361.586 43.688 362.002 42.408 362.386 41.128C362.834 39.784 363.282 38.504 363.73 37.288L364.018 36.424C364.338 35.464 364.658 34.536 364.978 33.64C365.298 32.68 365.586 31.88 365.842 31.24C365.97 30.856 366.098 30.472 366.226 30.088C366.354 29.704 366.45 29.352 366.514 29.032C366.642 28.584 366.77 28.136 366.898 27.688C367.09 27.24 367.282 26.792 367.474 26.344C367.666 25.768 367.89 25.224 368.146 24.712C368.466 24.136 368.882 23.72 369.394 23.464C369.97 23.144 370.61 23.016 371.314 23.08C372.018 23.08 372.69 23.08 373.33 23.08H385.714C386.034 23.08 386.354 23.08 386.674 23.08C387.058 23.016 387.378 23.016 387.634 23.08ZM407.59 20.968C406.822 21.096 406.022 21 405.19 20.68C404.422 20.36 403.654 19.976 402.886 19.528C402.694 19.464 402.47 19.4 402.214 19.336C402.022 19.208 401.798 19.112 401.542 19.048C401.03 18.92 400.486 18.792 399.91 18.664C399.398 18.472 398.886 18.28 398.374 18.088C398.182 18.024 397.99 17.992 397.798 17.992C397.67 17.928 397.51 17.864 397.318 17.8L396.55 17.512C396.486 17.384 396.39 17.288 396.262 17.224C396.198 17.16 396.102 17.096 395.974 17.032C395.526 16.584 395.27 16.104 395.206 15.592V5.8C395.206 5.224 395.174 4.584 395.11 3.88C395.11 3.176 395.302 2.568 395.686 2.056L396.262 1.47999C396.454 1.352 396.742 1.224 397.126 1.096C397.638 0.967997 398.15 0.903996 398.662 0.903996C399.238 0.903996 399.75 0.935995 400.198 0.999994H411.046C411.622 0.935995 412.198 0.903996 412.774 0.903996C413.414 0.839996 414.022 0.871996 414.598 0.999994C414.662 0.999994 414.694 1.032 414.694 1.096C414.694 1.096 414.726 1.096 414.79 1.096C414.854 1.096 415.014 1.16 415.27 1.288C415.59 1.41599 415.846 1.64 416.038 1.96C416.358 2.344 416.518 2.696 416.518 3.016C416.582 3.336 416.614 3.592 416.614 3.784C416.678 4.04 416.71 4.296 416.71 4.55199C416.71 4.744 416.71 4.968 416.71 5.224C416.71 6.568 416.678 7.94399 416.614 9.352C416.614 10.76 416.614 12.136 416.614 13.48V15.208C416.614 15.528 416.582 15.784 416.518 15.976C416.454 16.296 416.262 16.616 415.942 16.936L415.558 17.32C415.43 17.448 415.302 17.512 415.174 17.512C415.11 17.576 415.046 17.672 414.982 17.8C414.982 17.928 414.918 18.024 414.79 18.088C414.79 18.088 414.726 18.088 414.598 18.088C414.47 18.024 414.342 17.992 414.214 17.992C414.086 17.992 413.926 18.024 413.734 18.088C413.542 18.152 413.382 18.216 413.254 18.28C413.126 18.344 412.966 18.408 412.774 18.472C412.582 18.472 412.422 18.504 412.294 18.568C412.166 18.568 412.07 18.6 412.006 18.664C411.558 18.856 411.11 19.112 410.662 19.432C410.214 19.752 409.734 20.072 409.222 20.392C408.71 20.648 408.166 20.84 407.59 20.968ZM416.998 71.272C416.934 71.336 416.902 71.4 416.902 71.464C416.902 71.528 416.87 71.592 416.806 71.656V71.752C416.678 71.88 416.55 72.008 416.422 72.136C416.294 72.264 416.166 72.392 416.038 72.52C416.038 72.52 416.006 72.552 415.942 72.616C415.942 72.616 415.91 72.616 415.846 72.616C415.846 72.616 415.814 72.648 415.75 72.712C415.75 72.712 415.718 72.712 415.654 72.712C415.526 72.84 415.398 73.032 415.27 73.288C415.206 73.352 415.142 73.448 415.078 73.576C415.078 73.704 415.014 73.8 414.886 73.864C414.63 74.184 414.374 74.472 414.118 74.728C413.862 75.048 413.606 75.368 413.35 75.688V75.784H413.254C413.254 75.848 413.19 75.944 413.062 76.072L411.814 78.184C411.494 78.76 411.11 79.176 410.662 79.432C410.406 79.56 410.278 79.624 410.278 79.624C410.214 80.136 410.246 80.744 410.374 81.448C410.502 82.216 410.566 82.856 410.566 83.368C410.566 83.944 410.342 84.168 409.894 84.04C409.382 83.912 409.126 83.56 409.126 82.984C409.126 82.472 409.19 81.864 409.318 81.16C409.51 80.52 409.574 79.944 409.51 79.432C409.446 79.432 409.318 79.336 409.126 79.144C408.934 78.952 408.774 78.728 408.646 78.472C408.518 78.28 408.39 78.056 408.262 77.8C408.07 77.608 407.942 77.448 407.878 77.32L407.014 76.456C406.95 76.904 406.95 77.544 407.014 78.376C407.142 79.208 407.046 79.496 406.726 79.24C406.278 78.92 406.15 78.44 406.342 77.8C406.534 77.16 406.566 76.584 406.438 76.072C406.374 75.944 406.278 75.848 406.15 75.784C406.086 75.72 405.99 75.624 405.862 75.496L405.19 74.824C405.062 74.632 404.87 74.408 404.614 74.152C404.486 74.792 404.422 75.464 404.422 76.168C404.422 76.872 404.358 77.576 404.23 78.28C404.166 78.344 404.102 78.312 404.038 78.184C403.974 78.056 403.91 77.96 403.846 77.896C403.654 77.64 403.462 77.416 403.27 77.224C403.142 77.032 402.95 76.872 402.694 76.744C402.374 76.616 402.054 76.584 401.734 76.648C401.414 76.712 401.094 76.616 400.774 76.36C400.518 76.168 400.294 75.944 400.102 75.688C399.974 75.496 399.814 75.272 399.622 75.016C399.558 75.016 399.494 74.984 399.43 74.92C399.366 74.856 399.302 74.888 399.238 75.016C399.174 76.104 399.11 77.224 399.046 78.376C399.046 79.528 398.982 80.68 398.854 81.832C398.854 81.96 398.79 81.864 398.662 81.544C398.598 81.288 398.534 81.096 398.47 80.968C398.342 80.584 398.214 80.136 398.086 79.624C397.958 79.176 397.83 78.76 397.702 78.376C397.446 77.48 397.286 76.872 397.222 76.552C397.222 76.232 397.222 75.976 397.222 75.784C397.286 75.592 397.254 75.304 397.126 74.92C397.062 74.6 396.838 73.928 396.454 72.904L395.878 72.616C395.43 72.296 395.11 71.912 394.918 71.464C394.79 71.016 394.726 70.568 394.726 70.12C394.662 69.672 394.63 69.224 394.63 68.776C394.694 68.264 394.726 67.784 394.726 67.336V25.672C394.726 25.352 394.758 25.096 394.822 24.904C394.95 24.52 395.078 24.264 395.206 24.136L395.782 23.56C396.038 23.368 396.454 23.208 397.03 23.08C397.67 22.952 398.31 22.92 398.95 22.984C399.654 23.048 400.262 23.08 400.774 23.08H410.278C411.046 23.08 411.814 23.048 412.582 22.984C413.414 22.92 414.214 22.952 414.982 23.08C415.11 23.08 415.238 23.112 415.366 23.176C415.494 23.24 415.622 23.304 415.75 23.368C415.942 23.432 416.07 23.496 416.134 23.56C416.326 23.752 416.454 23.912 416.518 24.04C416.774 24.296 416.966 24.712 417.094 25.288C417.158 25.544 417.158 25.864 417.094 26.248C417.094 26.568 417.094 26.888 417.094 27.208C417.158 28.424 417.158 29.64 417.094 30.856C417.094 32.008 417.094 33.192 417.094 34.408V67.72C417.094 67.976 417.094 68.232 417.094 68.488C417.094 68.744 417.126 69.032 417.19 69.352C417.19 69.608 417.19 69.864 417.19 70.12C417.19 70.376 417.126 70.76 416.998 71.272ZM460.78 86.152C460.716 86.472 460.684 86.984 460.684 87.688C460.684 88.392 460.588 88.584 460.396 88.264C460.14 87.752 460.076 87.144 460.204 86.44C460.396 85.8 460.332 85.224 460.012 84.712C459.884 84.456 459.82 84.584 459.82 85.096C459.82 85.672 459.82 86.216 459.82 86.728C459.82 87.24 459.756 87.4 459.628 87.208C459.372 86.568 459.276 85.896 459.34 85.192C459.468 84.552 459.468 83.912 459.34 83.272C459.02 83.016 458.7 82.728 458.38 82.408C458.124 82.088 457.9 81.8 457.708 81.544C457.452 81.224 457.228 80.904 457.036 80.584C456.844 80.328 456.652 80.072 456.46 79.816C455.948 79.304 455.468 78.664 455.02 77.896L453.868 75.88C453.868 75.816 453.772 75.592 453.58 75.208C453.388 74.888 453.228 74.664 453.1 74.536C452.972 74.408 452.844 74.312 452.716 74.248C452.46 74.248 452.332 74.344 452.332 74.536C452.268 75.176 452.236 75.784 452.236 76.36C452.236 77 452.172 77.64 452.044 78.28C452.044 78.408 452.012 78.312 451.948 77.992C451.884 77.672 451.852 77.416 451.852 77.224C451.788 76.712 451.724 76.168 451.66 75.592C451.66 75.016 451.628 74.472 451.564 73.96H450.988C447.148 73.832 443.66 73.288 440.524 72.328C437.388 71.368 434.7 69.896 432.46 67.912L431.884 67.432L431.212 66.76C429.548 64.968 428.172 62.856 427.084 60.424C426.06 57.992 425.388 55.112 425.068 51.784C425.004 51.784 424.972 51.72 424.972 51.592C424.908 51.464 424.876 51.144 424.876 50.632C424.876 50.568 424.876 50.504 424.876 50.44C424.94 50.376 424.972 50.312 424.972 50.248C424.908 49.928 424.876 49.608 424.876 49.288C424.876 48.904 424.876 48.52 424.876 48.136V47.464C424.94 43.624 425.548 40.2 426.7 37.192C427.852 34.184 429.452 31.624 431.5 29.512C431.628 29.448 431.692 29.384 431.692 29.32C431.756 29.256 431.82 29.192 431.884 29.128C431.948 29.064 432.076 28.968 432.268 28.84C432.46 28.648 432.556 28.552 432.556 28.552C432.748 28.36 432.908 28.232 433.036 28.168C437.772 24.136 444.172 22.12 452.236 22.12H454.252C454.508 22.12 454.668 22.152 454.732 22.216C455.308 22.216 455.724 22.248 455.98 22.312C456.876 22.248 457.548 22.312 457.996 22.504C458.316 22.568 458.636 22.632 458.956 22.696C459.276 22.696 459.596 22.76 459.916 22.888C463.244 23.528 466.124 24.648 468.556 26.248C470.988 27.784 473.004 29.64 474.604 31.816C474.924 32.072 475.18 32.392 475.372 32.776C475.564 33.16 475.756 33.512 475.948 33.832L476.716 35.176C476.78 35.368 476.844 35.56 476.908 35.752C477.036 35.88 477.132 36.04 477.196 36.232C477.324 36.424 477.42 36.616 477.484 36.808C477.548 37 477.612 37.192 477.676 37.384C477.996 38.28 478.284 39.208 478.54 40.168C478.86 41.128 479.084 42.088 479.212 43.048C479.212 43.304 479.244 43.496 479.308 43.624C479.436 44.136 479.5 44.648 479.5 45.16C479.5 45.672 479.532 46.184 479.596 46.696V51.112C479.596 52.008 479.212 52.744 478.444 53.32C478.252 53.448 478.028 53.64 477.772 53.896C477.644 54.216 477.516 54.376 477.388 54.376C477.388 54.376 477.26 54.248 477.004 53.992C476.876 53.992 476.684 54.024 476.427 54.088C476.172 54.152 475.98 54.216 475.852 54.28C475.596 54.344 475.372 54.408 475.18 54.472C474.988 54.472 474.764 54.472 474.508 54.472C473.996 54.536 473.516 54.664 473.068 54.856C472.62 55.048 472.14 55.208 471.628 55.336C471.244 55.4 470.828 55.432 470.38 55.432C469.932 55.432 469.484 55.432 469.036 55.432C468.46 55.496 467.916 55.624 467.404 55.816C466.956 56.008 466.476 56.072 465.964 56.008C465.58 55.944 465.196 55.88 464.812 55.816C464.428 55.688 464.012 55.592 463.564 55.528C463.308 55.592 463.052 55.656 462.796 55.72C462.604 55.784 462.38 55.848 462.124 55.912C461.932 55.976 461.74 56.008 461.548 56.008C461.356 56.008 461.164 56.072 460.972 56.2C460.78 56.328 460.492 56.584 460.108 56.968H473.26C473.516 56.968 473.772 56.968 474.028 56.968C474.348 56.904 474.668 56.872 474.988 56.872H475.468C475.852 56.872 476.3 56.936 476.812 57.064C476.94 57.064 477.036 57.096 477.1 57.16C477.164 57.16 477.228 57.16 477.292 57.16C477.74 57.352 478.06 57.704 478.252 58.216C478.38 58.6 478.412 58.92 478.348 59.176C478.348 59.624 478.252 60.136 478.06 60.712L477.772 61.48C477.388 62.504 476.876 63.368 476.236 64.072C475.98 64.392 475.724 64.712 475.468 65.032C475.212 65.352 474.924 65.672 474.604 65.992C474.348 66.248 474.092 66.504 473.836 66.76C473.58 67.016 473.292 67.272 472.972 67.528L472.396 68.104C472.076 68.424 471.788 68.808 471.531 69.256C471.34 69.64 471.116 70.024 470.86 70.408C470.668 70.6 470.54 70.76 470.476 70.888C470.604 70.76 470.604 70.824 470.476 71.08C470.348 71.336 470.22 71.4 470.092 71.272C469.964 71.592 469.804 71.88 469.612 72.136C469.484 72.392 469.292 72.776 469.036 73.288C468.908 73.608 468.748 73.896 468.556 74.152C468.428 74.472 468.3 74.792 468.172 75.112C467.788 75.816 467.436 76.392 467.116 76.84C467.052 77.032 466.956 77.192 466.828 77.32C466.764 77.512 466.668 77.672 466.54 77.8L466.156 78.376C466.092 78.44 466.028 78.536 465.964 78.664C465.9 78.792 465.804 78.92 465.676 79.048C465.292 79.496 464.908 79.912 464.524 80.296C464.14 80.744 463.756 81.192 463.372 81.64L462.7 82.312C462.572 82.504 462.412 82.696 462.22 82.888C462.092 83.08 461.932 83.24 461.74 83.368C461.484 83.624 461.292 83.752 461.164 83.752C461.1 84.136 461.036 84.52 460.972 84.904C460.972 85.352 460.908 85.768 460.78 86.152ZM448.78 41.704H449.26C450.092 41.704 450.924 41.704 451.756 41.704C452.588 41.64 453.42 41.64 454.252 41.704L456.076 41.608V40.456C456.012 40.392 455.98 40.328 455.98 40.264C455.98 40.008 455.948 39.72 455.884 39.4C455.884 39.08 455.852 38.792 455.788 38.536L455.212 37.192C455.148 37.128 455.116 37.096 455.116 37.096C455.116 37.032 455.084 36.968 455.02 36.904C454.7 36.456 454.348 36.168 453.964 36.04C453.964 35.976 453.868 35.944 453.676 35.944H453.58C453.132 35.944 452.684 35.976 452.236 36.04C451.788 36.04 451.34 36.072 450.892 36.136C450.764 36.2 450.572 36.264 450.316 36.328C450.124 36.328 449.932 36.392 449.74 36.52C449.676 36.584 449.644 36.648 449.644 36.712C449.644 36.712 449.612 36.744 449.548 36.808C449.42 36.936 449.324 37.096 449.26 37.288C449.196 37.48 449.1 37.64 448.972 37.768C448.588 38.792 448.396 39.528 448.396 39.976C448.46 40.424 448.588 41 448.78 41.704ZM451.372 59.944C451.5 60.008 451.884 60.04 452.524 60.04C452.908 59.912 453.26 59.72 453.58 59.464C453.964 59.208 454.284 58.952 454.54 58.696L455.404 57.832C455.916 57.448 456.3 57.224 456.556 57.16C456.812 57.096 457.1 57.032 457.42 56.968C456.972 56.84 456.524 56.712 456.076 56.584C455.692 56.456 455.276 56.328 454.828 56.2C454.124 55.944 453.42 55.656 452.716 55.336C452.076 55.016 451.404 54.728 450.7 54.472L448.78 53.896C448.652 53.768 448.524 53.704 448.396 53.704V54.184C448.396 54.248 448.396 54.536 448.396 55.048C448.46 55.496 448.492 55.784 448.492 55.912C448.556 56.616 448.716 57.32 448.972 58.024C449.292 58.664 449.708 59.176 450.22 59.56L450.988 59.848C451.052 59.912 451.18 59.944 451.372 59.944ZM536.624 58.504C536.432 61.192 535.568 63.592 534.032 65.704C533.968 65.832 533.872 65.96 533.744 66.088C533.616 66.216 533.488 66.344 533.36 66.472C533.104 66.728 532.816 67.016 532.496 67.336C532.176 67.656 531.824 67.976 531.44 68.296C531.12 68.744 530.8 69.224 530.48 69.736C530.224 70.248 529.904 70.728 529.52 71.176C529.264 71.432 529.072 71.496 528.944 71.368C528.432 72.52 527.92 73.512 527.408 74.344C527.28 74.6 527.12 74.824 526.928 75.016C526.736 75.272 526.544 75.528 526.352 75.784C526.096 76.04 525.968 76.136 525.968 76.072C525.904 75.56 525.872 75.016 525.872 74.44C525.872 73.928 525.84 73.416 525.776 72.904C525.584 73.032 525.424 73.192 525.296 73.384C525.232 73.448 525.168 73.48 525.104 73.48C525.04 73.544 524.976 73.64 524.912 73.768C524.848 74.408 524.784 75.08 524.72 75.784C524.656 76.488 524.56 77.192 524.432 77.896C524.368 78.216 524.304 78.696 524.24 79.336C524.176 79.976 524.08 80.136 523.952 79.816C523.632 78.792 523.568 78.024 523.76 77.512C523.952 77.064 523.792 76.264 523.28 75.112C523.216 75.56 523.184 76.008 523.184 76.456C523.184 76.904 523.152 77.352 523.088 77.8C523.088 77.864 523.024 77.896 522.896 77.896C522.832 77.896 522.768 77.928 522.704 77.992C522.64 77.992 522.576 77.992 522.512 77.992C522.512 78.056 522.448 78.088 522.32 78.088C521.936 78.408 521.584 78.76 521.264 79.144C520.816 79.656 520.432 80.296 520.112 81.064C520.048 81.128 519.984 81.224 519.92 81.352C519.856 81.48 519.792 81.608 519.728 81.736C519.664 81.864 519.568 82.024 519.44 82.216C519.376 82.472 519.344 82.568 519.344 82.504C519.216 81.352 519.152 80.2 519.152 79.048C519.152 77.896 519.088 76.744 518.96 75.592C518.832 75.464 518.704 75.4 518.576 75.4C518.448 75.464 518.32 75.496 518.192 75.496C518.064 75.56 517.936 75.624 517.808 75.688C517.424 75.816 517.072 75.88 516.752 75.88C516.752 75.944 516.72 75.976 516.656 75.976C516.656 75.976 516.656 76.008 516.656 76.072C516.016 76.776 515.696 77.128 515.696 77.128C515.696 77.128 515.824 77 516.08 76.744C516.336 76.488 516.496 76.328 516.56 76.264C516.688 76.264 516.464 76.616 515.888 77.32C515.76 77.448 515.632 77.64 515.504 77.896C515.44 77.96 515.376 78.088 515.312 78.28C515.248 78.472 515.184 78.536 515.12 78.472C514.928 78.152 514.832 77.64 514.832 76.936C514.896 76.296 514.864 76.136 514.736 76.456C514.544 76.776 514.512 77.192 514.64 77.704C514.768 78.28 514.832 78.76 514.832 79.144C514.896 79.592 514.736 79.816 514.352 79.816C513.776 79.816 513.584 79.4 513.776 78.568C514.032 77.736 514.096 77.032 513.968 76.456C513.968 76.392 513.84 76.36 513.584 76.36C513.392 76.36 513.264 76.328 513.2 76.264C513.008 76.264 512.848 76.2 512.72 76.072C512.656 76.648 512.624 77.224 512.624 77.8C512.624 78.376 512.56 78.952 512.432 79.528C512.368 79.72 512.304 79.656 512.24 79.336C512.176 79.016 512.112 78.792 512.048 78.664C511.984 78.472 511.92 78.28 511.856 78.088C511.792 77.96 511.728 77.832 511.664 77.704L510.8 75.496C510.8 75.752 510.768 76.04 510.704 76.36C510.704 76.744 510.64 77.064 510.512 77.32C510.448 77.448 510.384 77.352 510.32 77.032C510.32 76.776 510.256 76.584 510.128 76.456L508.976 73.96H508.4C502.704 73.832 498.096 73 494.576 71.464C491.056 69.864 488.464 68.072 486.8 66.088C486.544 65.768 486.256 65.416 485.936 65.032C485.68 64.648 485.456 64.264 485.264 63.88C485.008 63.432 484.816 63.016 484.688 62.632C484.56 62.184 484.432 61.768 484.304 61.384C484.112 60.616 484.08 59.944 484.208 59.368C484.208 59.24 484.24 59.112 484.304 58.984C484.368 58.856 484.432 58.76 484.496 58.696C484.56 58.568 484.688 58.408 484.88 58.216C485.264 57.832 485.744 57.64 486.32 57.64C486.832 57.512 487.504 57.48 488.336 57.544C489.168 57.608 489.904 57.64 490.544 57.64H499.28C499.984 57.64 500.72 57.608 501.488 57.544C502.256 57.48 502.992 57.512 503.696 57.64C503.824 57.704 503.92 57.736 503.984 57.736C504.112 57.736 504.24 57.768 504.368 57.832C504.816 57.96 505.232 58.152 505.616 58.408C506 58.6 506.384 58.856 506.768 59.176L507.44 59.56C507.696 59.688 507.952 59.816 508.208 59.944C508.464 60.072 508.72 60.2 508.976 60.328C509.296 60.392 509.552 60.456 509.744 60.52C509.936 60.52 510.16 60.52 510.416 60.52C510.928 60.52 511.376 60.424 511.76 60.232C512.272 60.04 512.56 59.656 512.624 59.08V58.408C512.56 58.344 512.528 58.28 512.528 58.216C512.272 57.704 511.76 57.288 510.992 56.968L510.224 56.68C510.096 56.616 509.968 56.584 509.84 56.584C509.712 56.52 509.584 56.488 509.456 56.488C509.136 56.424 508.752 56.424 508.304 56.488C507.92 56.488 507.568 56.456 507.248 56.392C506.8 56.328 506.352 56.232 505.904 56.104C505.52 55.976 505.072 55.944 504.56 56.008C504.24 56.072 503.888 56.168 503.504 56.296C503.184 56.36 502.864 56.424 502.544 56.488C502.224 56.552 501.904 56.552 501.584 56.488C501.264 56.424 500.944 56.392 500.624 56.392C500.368 56.328 500.08 56.296 499.76 56.296C499.504 56.296 499.216 56.264 498.896 56.2C498.192 56.072 497.456 55.816 496.688 55.432C495.92 54.984 495.216 54.536 494.576 54.088C494.128 53.704 493.616 53.192 493.04 52.552C492.528 51.912 491.952 51.272 491.312 50.632C491.12 50.44 491.024 50.344 491.024 50.344C490.96 50.344 490.896 50.408 490.832 50.536C490.832 50.664 490.768 50.696 490.64 50.632C490.576 50.568 490.512 50.472 490.448 50.344C490.448 50.216 490.416 50.088 490.352 49.96C490.16 49.576 489.872 49.224 489.488 48.904C489.36 48.776 489.232 48.648 489.104 48.52C489.04 48.392 488.944 48.296 488.816 48.232C488.944 48.296 488.848 48.2 488.528 47.944C488.208 47.624 488.048 47.432 488.048 47.368C487.664 46.856 487.344 46.408 487.088 46.024C486.64 45.256 486.32 44.68 486.128 44.296C486 43.848 485.84 43.304 485.648 42.664C485.2 41.128 485.008 39.528 485.072 37.864C485.072 37.672 485.104 37.512 485.168 37.384C485.488 33.992 487.184 30.888 490.256 28.072C493.392 25.192 497.808 23.336 503.504 22.504C503.824 22.44 504.144 22.408 504.464 22.408C504.784 22.344 505.104 22.312 505.424 22.312C505.744 22.248 506.064 22.216 506.384 22.216C506.768 22.152 507.12 22.12 507.44 22.12H508.112C508.944 22.056 509.744 22.024 510.512 22.024C511.344 22.024 512.112 22.088 512.816 22.216C512.944 22.216 513.04 22.248 513.104 22.312C517.392 22.632 521.04 23.496 524.048 24.904C527.056 26.312 529.488 27.944 531.344 29.8C531.6 30.056 531.824 30.312 532.016 30.568C532.208 30.76 532.432 31.016 532.688 31.336C533.456 32.296 533.968 33.288 534.224 34.312C534.352 34.76 534.448 35.24 534.512 35.752C534.576 36.2 534.512 36.648 534.32 37.096C534.256 37.16 534.224 37.256 534.224 37.384C534.16 37.384 534.128 37.416 534.128 37.48L533.456 38.152C533.392 38.152 533.328 38.184 533.264 38.248C533.264 38.248 533.232 38.248 533.168 38.248C533.168 38.312 533.136 38.472 533.072 38.728C533.008 38.92 532.912 39.016 532.784 39.016C532.784 39.016 532.752 39.016 532.688 39.016C532.688 39.016 532.656 38.984 532.592 38.92C532.592 38.92 532.528 38.856 532.4 38.728H532.112C532.112 38.792 532.08 38.856 532.016 38.92C532.016 38.92 532.016 38.952 532.016 39.016C531.952 39.4 531.952 39.816 532.016 40.264C532.08 40.712 531.952 41.096 531.632 41.416C531.44 41.672 531.344 41.544 531.344 41.032C531.408 40.456 531.376 40.04 531.248 39.784C531.184 39.72 531.12 39.752 531.056 39.88C530.992 40.008 530.928 40.104 530.864 40.168L529.712 41.32C528.816 42.088 527.76 42.632 526.544 42.952C526.032 43.08 525.584 43.144 525.2 43.144C527.76 44.168 529.84 45.384 531.44 46.792C533.04 48.136 534.256 49.64 535.088 51.304C535.344 51.688 535.504 51.976 535.568 52.168C535.824 52.808 536.048 53.448 536.24 54.088C536.432 54.664 536.56 55.304 536.624 56.008V58.504ZM517.904 41.32C518.544 41.384 519.152 41.48 519.728 41.608C520.304 41.736 520.88 41.864 521.456 41.992C521.2 41.736 520.912 41.512 520.592 41.32C520.272 41.064 519.952 40.84 519.632 40.648C518.992 40.776 518.288 40.904 517.52 41.032C516.816 41.096 516.112 41 515.408 40.744C514.576 40.424 513.872 39.944 513.296 39.304C512.72 38.664 512.112 38.056 511.472 37.48C511.152 37.608 510.8 37.608 510.416 37.48C510.16 37.352 509.904 37.224 509.648 37.096C509.392 36.904 509.104 36.712 508.784 36.52C508.656 36.392 508.528 36.264 508.4 36.136C508.272 36.008 508.144 35.976 508.016 36.04C507.696 36.232 507.504 36.456 507.44 36.712V36.808C507.376 36.872 507.344 36.968 507.344 37.096V37.672C507.408 37.736 507.44 37.8 507.44 37.864C507.568 38.12 507.76 38.376 508.016 38.632C508.272 38.888 508.528 39.08 508.784 39.208C509.04 39.336 509.2 39.4 509.264 39.4C509.84 39.656 510.608 39.912 511.568 40.168C512.528 40.36 513.744 40.616 515.216 40.936L517.52 41.224C517.456 41.224 517.52 41.256 517.712 41.32C517.968 41.384 518.032 41.384 517.904 41.32ZM592.961 46.888C592.961 47.272 592.961 47.688 592.961 48.136C593.025 48.52 593.025 48.904 592.961 49.288C592.961 49.544 592.897 49.864 592.769 50.248C592.641 50.504 592.545 50.664 592.481 50.728L591.905 51.304C591.841 51.368 591.745 51.592 591.617 51.976C591.489 52.296 591.329 52.52 591.137 52.648C591.009 52.712 590.881 52.68 590.753 52.552C590.689 52.36 590.593 52.456 590.465 52.84C590.145 53.608 589.921 54.44 589.793 55.336C589.729 56.168 589.537 57 589.217 57.832C589.217 57.896 589.089 58.184 588.833 58.696C588.641 59.144 588.385 59.368 588.065 59.368C587.809 59.304 587.585 59.016 587.393 58.504C587.201 57.992 587.105 57.704 587.105 57.64C586.785 56.68 586.625 56.04 586.625 55.72C586.625 55.4 586.625 55.08 586.625 54.76C586.625 54.376 586.497 53.704 586.241 52.744C586.241 52.744 586.177 52.68 586.049 52.552C585.985 52.616 585.953 52.712 585.953 52.84C585.953 52.904 585.921 52.968 585.857 53.032C585.793 53.16 585.633 53.32 585.377 53.512C585.121 53.704 584.897 53.8 584.705 53.8C584.449 53.8 584.193 53.672 583.937 53.416C583.809 53.544 583.681 53.64 583.553 53.704C583.489 53.704 583.425 53.672 583.361 53.608C583.297 53.48 583.265 53.448 583.265 53.512C583.201 53.896 583.169 54.44 583.169 55.144C583.169 55.784 583.169 56.328 583.169 56.776C583.169 57.224 583.073 57.288 582.881 56.968C582.433 56.264 582.273 55.496 582.401 54.664C582.593 53.832 582.625 53.064 582.497 52.36C582.369 52.488 582.241 52.68 582.113 52.936C582.305 52.744 582.305 52.776 582.113 53.032C581.921 53.224 581.761 53.256 581.633 53.128C581.569 53.448 581.537 53.768 581.537 54.088C581.537 54.408 581.473 54.728 581.345 55.048C581.345 55.176 581.313 55.336 581.249 55.528C581.185 55.72 581.089 55.784 580.961 55.72C580.769 55.592 580.641 55.432 580.577 55.24C580.577 54.984 580.545 54.76 580.481 54.568C580.417 54.248 580.353 53.928 580.289 53.608C580.225 53.288 580.129 52.968 580.001 52.648C580.001 52.776 579.937 52.904 579.809 53.032C579.809 53.032 579.649 53 579.329 52.936C579.073 52.872 578.977 52.84 579.041 52.84C578.657 52.84 578.305 52.872 577.985 52.936C577.729 52.936 577.441 52.904 577.121 52.84C577.121 53.416 577.025 53.672 576.833 53.608C576.705 53.544 576.577 53.352 576.449 53.032C576.385 52.712 576.257 52.392 576.065 52.072L575.489 51.496C574.785 50.792 574.497 50.472 574.625 50.536C574.753 50.6 574.977 50.824 575.297 51.208C575.681 51.592 575.809 51.912 575.681 52.168V63.784C575.681 64.168 575.681 64.552 575.681 64.936C575.745 65.32 575.745 65.704 575.681 66.088C575.809 66.92 575.777 67.592 575.585 68.104C575.329 68.616 575.201 68.84 575.201 68.776L575.009 68.968C574.817 69.224 574.561 69.416 574.241 69.544C574.177 69.736 574.113 69.928 574.049 70.12C574.049 70.312 573.985 70.504 573.857 70.696C573.793 70.888 573.761 71.176 573.761 71.56C573.825 71.88 573.729 72.008 573.473 71.944C573.409 71.944 573.345 71.912 573.281 71.848L571.841 75.496C571.521 76.456 571.169 77.416 570.785 78.376C570.657 78.696 570.497 79.016 570.305 79.336C570.177 79.72 569.985 80.072 569.729 80.392C569.601 80.584 569.441 80.776 569.249 80.968C569.057 81.224 568.801 81.384 568.481 81.448C568.417 81.512 568.321 81.576 568.193 81.64C568.065 81.704 567.905 81.832 567.713 82.024C567.585 82.28 567.457 82.472 567.329 82.6C567.201 82.728 567.073 82.76 566.945 82.696C566.753 82.568 566.593 82.184 566.465 81.544C566.337 80.968 566.273 80.68 566.273 80.68C566.017 80.488 565.793 80.264 565.601 80.008C565.473 79.816 565.313 79.592 565.121 79.336L564.737 78.664V78.568C564.353 77.672 564.001 76.744 563.681 75.784C563.361 74.888 563.041 73.992 562.721 73.096C562.593 72.776 562.465 72.456 562.337 72.136C562.209 71.752 562.081 71.432 561.953 71.176L561.377 69.832L560.513 69.736C560.385 69.672 560.257 69.608 560.129 69.544C560.001 69.416 559.873 69.32 559.745 69.256C559.105 68.744 558.785 68.072 558.785 67.24V52.936L558.401 51.784C558.337 51.848 558.177 52.168 557.921 52.744C557.729 53.256 557.633 53.544 557.633 53.608C557.569 53.736 557.505 53.96 557.441 54.28C557.441 54.6 557.377 54.696 557.249 54.568C557.121 54.44 557.057 54.184 557.057 53.8C556.993 53.864 556.961 53.96 556.961 54.088C556.961 54.216 556.929 54.344 556.865 54.472C556.801 54.536 556.737 54.664 556.673 54.856C556.609 55.048 556.513 55.112 556.385 55.048C556.193 54.984 556.065 54.568 556.001 53.8C555.937 54.568 555.905 55.336 555.905 56.104C555.905 56.872 555.841 57.64 555.713 58.408C555.713 58.472 555.585 58.76 555.329 59.272C555.137 59.72 555.009 59.976 554.945 60.04C554.881 60.296 554.753 60.552 554.561 60.808C554.497 60.872 554.433 61.032 554.369 61.288C554.305 61.48 554.241 61.544 554.177 61.48C554.049 60.2 553.985 58.92 553.985 57.64C553.985 56.36 553.921 55.08 553.793 53.8C553.793 53.864 553.665 53.896 553.409 53.896C553.345 53.896 553.313 53.928 553.313 53.992C553.313 53.992 553.281 53.992 553.217 53.992H552.929C552.865 54.12 552.769 54.248 552.641 54.376C552.641 54.376 552.545 54.28 552.353 54.088C551.969 54.088 551.681 54.056 551.489 53.992C551.297 53.992 551.201 53.992 551.201 53.992C551.073 55.4 551.009 56.808 551.009 58.216C551.009 59.624 550.945 61.064 550.817 62.536C550.753 62.6 550.625 62.44 550.433 62.056C550.369 61.992 550.305 61.928 550.241 61.864C550.177 61.8 550.113 61.736 550.049 61.672C549.857 61.48 549.601 61.224 549.281 60.904C549.025 60.52 548.897 60.2 548.897 59.944C548.769 58.856 548.705 57.768 548.705 56.68C548.705 55.528 548.641 54.408 548.513 53.32C548.449 53.384 548.321 53.48 548.129 53.608C548.001 53.736 547.873 53.864 547.745 53.992C547.105 55.336 546.817 56.776 546.881 58.312C547.009 59.848 547.009 61.352 546.881 62.824C546.881 63.08 546.817 63.4 546.689 63.784C546.625 64.168 546.561 64.264 546.497 64.072C545.793 63.368 545.441 62.824 545.441 62.44C545.505 61.992 545.665 61.608 545.921 61.288C546.241 60.968 546.433 60.616 546.497 60.232C546.561 59.784 546.305 59.208 545.729 58.504C545.473 57.544 545.377 56.808 545.441 56.296C545.569 55.784 545.473 54.888 545.153 53.608L545.057 53.512C544.929 53.384 544.833 53.256 544.769 53.128L544.193 52.552C544.129 52.744 544.097 52.936 544.097 53.128C544.097 53.32 544.033 53.48 543.905 53.608C543.905 53.608 543.745 53.448 543.425 53.128C543.297 52.872 543.169 52.68 543.041 52.552L542.753 51.976C542.753 51.976 542.689 51.848 542.561 51.592C542.561 51.528 542.497 51.432 542.369 51.304C541.985 51.048 541.697 50.696 541.505 50.248C541.505 50.184 541.473 50.152 541.409 50.152C541.409 50.088 541.409 50.024 541.409 49.96C541.345 49.832 541.313 49.576 541.313 49.192C541.249 48.808 541.217 48.392 541.217 47.944C541.281 47.496 541.313 47.112 541.313 46.792C541.313 45.704 541.281 44.616 541.217 43.528C541.217 42.44 541.249 41.384 541.313 40.36C541.185 39.4 541.217 38.568 541.409 37.864C541.601 37.224 541.953 36.808 542.465 36.616C542.913 36.296 543.425 36.136 544.001 36.136C544.449 36.072 544.897 36.072 545.345 36.136C545.793 36.136 546.241 36.136 546.689 36.136H558.785V24.232C558.785 23.592 558.753 22.92 558.689 22.216C558.625 21.512 558.689 20.872 558.881 20.296C559.073 19.912 559.297 19.592 559.553 19.336C559.937 18.824 560.545 18.568 561.377 18.568H568.481C569.313 18.568 570.177 18.536 571.073 18.472C571.969 18.408 572.801 18.44 573.569 18.568C574.273 18.632 574.817 18.984 575.201 19.624C575.521 20.136 575.681 20.648 575.681 21.16V32.296C575.681 32.744 575.681 33.256 575.681 33.832C575.745 34.344 575.745 34.856 575.681 35.368V36.136H580.577C581.473 36.136 582.433 36.136 583.457 36.136C584.481 36.072 585.505 36.04 586.529 36.04H588.449C588.769 36.04 589.121 36.072 589.505 36.136C589.889 36.136 590.177 36.136 590.369 36.136C590.881 36.136 591.297 36.232 591.617 36.424C591.937 36.616 592.225 36.872 592.481 37.192V37.288C592.737 37.544 592.865 37.8 592.865 38.056C592.929 38.312 592.961 38.504 592.961 38.632C593.089 39.144 593.089 39.592 592.961 39.976V46.888Z" fill="white"/>
</svg>
